<svg xmlns="http://www.w3.org/2000/svg" xmlns:xlink="http://www.w3.org/1999/xlink" width="400" zoomAndPan="magnify" viewBox="0 0 300 299.999988" height="400" preserveAspectRatio="xMidYMid meet" version="1.0"><defs><g/><clipPath id="ad25e5d8d9"><path d="M 182 258 L 210 258 L 210 286.265625 L 182 286.265625 Z M 182 258 " clip-rule="nonzero"/></clipPath><clipPath id="4b2b86ebea"><path d="M 181 59.015625 L 212 59.015625 L 212 88 L 181 88 Z M 181 59.015625 " clip-rule="nonzero"/></clipPath><clipPath id="3609e1be97"><path d="M 19.34375 135 L 35 135 L 35 143 L 19.34375 143 Z M 19.34375 135 " clip-rule="nonzero"/></clipPath><clipPath id="34b3bfc13f"><path d="M 244 174 L 280.34375 174 L 280.34375 212 L 244 212 Z M 244 174 " clip-rule="nonzero"/></clipPath><clipPath id="b7d954fb2d"><path d="M 170.171875 4.109375 L 276.671875 4.109375 L 276.671875 58.859375 L 170.171875 58.859375 Z M 170.171875 4.109375 " clip-rule="nonzero"/></clipPath><clipPath id="64bf538b2f"><path d="M 23.328125 4.109375 L 129.710938 4.109375 L 129.710938 58.859375 L 23.328125 58.859375 Z M 23.328125 4.109375 " clip-rule="nonzero"/></clipPath></defs><path fill="#3db365" d="M 176.507812 93.25 C 182.929688 89.464844 186.933594 86.453125 190.296875 78.800781 L 197.71875 83.210938 C 193.132812 90.195312 192.78125 95.203125 193.09375 102.660156 Z M 176.507812 93.25 " fill-opacity="1" fill-rule="nonzero"/><path fill="#3db365" d="M 193.585938 244.253906 C 192.476562 251.632812 192.289062 256.648438 196.101562 264.089844 L 188.007812 267.089844 C 185.480469 259.117188 181.824219 255.691406 175.847656 251.238281 Z M 193.585938 244.253906 " fill-opacity="1" fill-rule="nonzero"/><path fill="#3b4d69" d="M 247.421875 136.535156 L 216.875 127.0625 L 230.191406 165.824219 L 248.578125 139.96875 C 249.460938 138.726562 248.871094 136.988281 247.421875 136.535156 Z M 247.421875 136.535156 " fill-opacity="1" fill-rule="nonzero"/><path fill="#457589" d="M 243.3125 111.757812 L 207.121094 111.757812 L 228.464844 145.882812 L 245.8125 116.128906 C 246.941406 114.191406 245.550781 111.757812 243.3125 111.757812 Z M 243.3125 111.757812 " fill-opacity="1" fill-rule="nonzero"/><g clip-path="url(#ad25e5d8d9)"><path fill="#73f354" d="M 200.949219 280.023438 C 201.078125 280.109375 201.207031 280.1875 201.34375 280.265625 C 204.183594 281.851562 207.664062 281.214844 209.117188 278.847656 C 210.558594 276.503906 209.472656 273.332031 206.691406 271.730469 C 206.792969 271.664062 206.894531 271.589844 206.996094 271.515625 C 209.765625 269.472656 210.761719 266.09375 209.222656 263.96875 C 207.691406 261.855469 204.222656 261.785156 201.457031 263.804688 C 201.488281 260.707031 199.550781 258.253906 196.964844 258.230469 C 194.242188 258.203125 191.839844 260.875 191.59375 264.191406 C 191.585938 264.273438 191.582031 264.355469 191.578125 264.4375 C 191.265625 264.246094 190.929688 264.078125 190.574219 263.933594 C 187.539062 262.710938 184.136719 263.753906 182.96875 266.257812 C 181.804688 268.765625 183.320312 271.789062 186.351562 273.011719 C 186.375 273.019531 186.394531 273.027344 186.417969 273.039062 C 186.265625 273.125 186.109375 273.222656 185.960938 273.324219 C 183.101562 275.238281 181.941406 278.578125 183.371094 280.777344 C 184.792969 282.972656 188.253906 283.210938 191.105469 281.3125 C 191.371094 284.140625 193.300781 286.261719 195.742188 286.214844 C 198.464844 286.164062 200.796875 283.429688 200.945312 280.113281 C 200.945312 280.082031 200.945312 280.050781 200.949219 280.023438 Z M 200.949219 280.023438 " fill-opacity="1" fill-rule="evenodd"/></g><g clip-path="url(#4b2b86ebea)"><path fill="#73f354" d="M 199.59375 64.992188 C 199.578125 64.839844 199.558594 64.683594 199.53125 64.53125 C 198.972656 61.324219 196.289062 59.011719 193.539062 59.371094 C 190.8125 59.726562 189.042969 62.570312 189.550781 65.742188 C 189.433594 65.707031 189.3125 65.671875 189.191406 65.640625 C 185.863281 64.773438 182.617188 66.125 181.941406 68.660156 C 181.265625 71.183594 183.394531 73.929688 186.703125 74.808594 C 184.28125 76.734375 183.601562 79.789062 185.210938 81.820312 C 186.90625 83.949219 190.488281 84.140625 193.214844 82.242188 C 193.285156 82.195312 193.351562 82.148438 193.414062 82.101562 C 193.464844 82.464844 193.546875 82.832031 193.660156 83.199219 C 194.621094 86.332031 197.574219 88.324219 200.25 87.65625 C 202.925781 86.984375 204.316406 83.902344 203.351562 80.769531 C 203.34375 80.746094 203.339844 80.722656 203.332031 80.703125 C 203.496094 80.765625 203.667969 80.824219 203.839844 80.878906 C 207.125 81.898438 210.445312 80.699219 211.25 78.199219 C 212.054688 75.710938 210.058594 72.867188 206.792969 71.84375 C 208.816406 69.851562 209.246094 67.015625 207.671875 65.144531 C 205.914062 63.058594 202.332031 62.964844 199.664062 64.9375 C 199.640625 64.957031 199.617188 64.972656 199.59375 64.992188 Z M 199.59375 64.992188 " fill-opacity="1" fill-rule="evenodd"/></g><path fill="#e0a128" d="M 101.757812 66.402344 C 101.539062 65.960938 101.003906 65.777344 100.5625 65.996094 C 100.121094 66.214844 99.941406 66.75 100.15625 67.191406 L 103.246094 73.492188 L 101.632812 80.304688 L 100.734375 80.804688 L 97.722656 80.304688 L 96.25 74.453125 C 96.128906 73.976562 95.644531 73.683594 95.167969 73.804688 C 94.6875 73.925781 94.398438 74.414062 94.519531 74.890625 L 95.8125 80.023438 L 93.390625 79.691406 L 89.917969 76.421875 C 89.5625 76.085938 88.996094 76.101562 88.660156 76.460938 C 88.324219 76.820312 88.339844 77.386719 88.699219 77.726562 L 91.53125 80.390625 L 86.050781 83.800781 C 85.632812 84.058594 85.503906 84.609375 85.765625 85.03125 C 86.023438 85.449219 86.574219 85.578125 86.992188 85.316406 L 93.183594 81.464844 L 95.316406 81.757812 L 93.519531 83.996094 C 93.210938 84.382812 93.269531 84.945312 93.65625 85.253906 C 94.039062 85.5625 94.601562 85.503906 94.910156 85.117188 L 97.367188 82.054688 L 100.667969 82.605469 L 102.746094 87.015625 L 99.359375 88.292969 L 94.28125 90.210938 L 88.925781 88.777344 C 88.449219 88.648438 87.960938 88.933594 87.835938 89.410156 C 87.707031 89.886719 87.992188 90.375 88.464844 90.503906 L 92.984375 91.714844 L 90.035156 96.964844 C 89.796875 97.398438 89.949219 97.941406 90.378906 98.183594 C 90.804688 98.425781 91.351562 98.273438 91.589844 97.84375 L 94.941406 91.871094 L 98.179688 90.648438 L 97.386719 92.855469 C 97.21875 93.320312 97.460938 93.832031 97.925781 94 C 98.386719 94.167969 98.898438 93.925781 99.066406 93.460938 L 100.375 89.820312 L 103.507812 88.636719 L 107.214844 96.5 C 107.382812 96.863281 107.832031 96.996094 108.171875 96.78125 L 112.375 94.160156 C 112.707031 93.953125 112.792969 93.503906 112.554688 93.1875 L 108.023438 87.148438 L 110.851562 83.722656 L 115.054688 79.195312 L 118.34375 79.195312 C 118.835938 79.195312 119.234375 78.796875 119.234375 78.304688 C 119.234375 77.808594 118.835938 77.410156 118.34375 77.410156 L 115.558594 77.410156 L 115.558594 73.777344 C 115.558594 73.285156 115.160156 72.886719 114.667969 72.886719 C 114.175781 72.886719 113.773438 73.285156 113.773438 73.777344 L 113.773438 77.953125 L 110.910156 81.039062 L 110.652344 77.785156 C 110.613281 77.292969 110.183594 76.925781 109.691406 76.964844 C 109.199219 77.003906 108.835938 77.433594 108.875 77.925781 L 109.261719 82.84375 L 106.921875 85.679688 L 103.328125 80.890625 L 104.972656 73.949219 L 108.902344 71.460938 C 109.316406 71.199219 109.441406 70.648438 109.179688 70.230469 C 108.914062 69.8125 108.363281 69.6875 107.949219 69.953125 L 104.550781 72.101562 Z M 101.757812 66.402344 " fill-opacity="1" fill-rule="evenodd"/><path fill="#e0a128" d="M 89.230469 269.382812 C 88.957031 269.792969 89.066406 270.347656 89.472656 270.621094 C 89.882812 270.894531 90.4375 270.785156 90.710938 270.375 L 94.613281 264.542969 L 101.304688 262.539062 L 102.1875 263.070312 L 103.257812 265.933594 L 98.941406 270.136719 C 98.585938 270.480469 98.578125 271.046875 98.921875 271.402344 C 99.265625 271.753906 99.828125 271.761719 100.183594 271.417969 L 103.972656 267.730469 L 104.894531 270 L 103.804688 274.644531 C 103.695312 275.125 103.992188 275.605469 104.472656 275.71875 C 104.949219 275.832031 105.429688 275.535156 105.542969 275.054688 L 106.429688 271.261719 L 112.113281 274.3125 C 112.546875 274.546875 113.089844 274.382812 113.320312 273.949219 C 113.554688 273.511719 113.390625 272.972656 112.957031 272.738281 L 106.53125 269.289062 L 105.71875 267.292969 L 108.554688 267.734375 C 109.039062 267.808594 109.496094 267.476562 109.570312 266.988281 C 109.644531 266.5 109.3125 266.042969 108.828125 265.96875 L 104.949219 265.363281 L 103.773438 262.226562 L 106.546875 258.214844 L 109.34375 260.515625 L 113.542969 263.96875 L 114.980469 269.328125 C 115.105469 269.804688 115.597656 270.089844 116.070312 269.960938 C 116.546875 269.832031 116.828125 269.34375 116.703125 268.867188 L 115.488281 264.339844 L 121.5 264.273438 C 121.992188 264.265625 122.386719 263.863281 122.382812 263.367188 C 122.375 262.875 121.972656 262.480469 121.480469 262.484375 L 114.644531 262.5625 L 111.96875 260.363281 L 114.273438 259.945312 C 114.757812 259.859375 115.082031 259.394531 114.992188 258.910156 C 114.90625 258.425781 114.441406 258.101562 113.957031 258.1875 L 110.15625 258.871094 L 107.566406 256.742188 L 112.511719 249.597656 C 112.738281 249.269531 112.628906 248.8125 112.273438 248.625 L 107.90625 246.285156 C 107.558594 246.101562 107.128906 246.253906 106.976562 246.617188 L 104.023438 253.570312 L 99.648438 252.828125 L 93.636719 251.445312 L 91.992188 248.585938 C 91.746094 248.160156 91.199219 248.015625 90.773438 248.261719 C 90.347656 248.507812 90.199219 249.054688 90.445312 249.480469 L 91.839844 251.898438 L 88.703125 253.714844 C 88.277344 253.960938 88.128906 254.507812 88.375 254.9375 C 88.621094 255.363281 89.167969 255.507812 89.59375 255.261719 L 93.199219 253.175781 L 97.300781 254.121094 L 94.617188 255.972656 C 94.210938 256.25 94.109375 256.808594 94.390625 257.214844 C 94.667969 257.621094 95.222656 257.722656 95.628906 257.441406 L 99.683594 254.648438 L 103.304688 255.261719 L 100.960938 260.777344 L 94.140625 262.816406 L 90.03125 260.652344 C 89.59375 260.421875 89.054688 260.589844 88.824219 261.027344 C 88.597656 261.464844 88.765625 262.003906 89.199219 262.234375 L 92.757812 264.105469 Z M 89.230469 269.382812 " fill-opacity="1" fill-rule="evenodd"/><path fill="#3b3b3b" d="M 65.570312 182.992188 C 65.835938 183.546875 65.601562 184.214844 65.046875 184.480469 L 58.597656 187.566406 L 60.398438 191.207031 L 66.597656 188.269531 C 67.152344 188.007812 67.816406 188.246094 68.082031 188.804688 C 68.34375 189.363281 68.105469 190.027344 67.550781 190.289062 L 60.359375 193.699219 C 59.8125 193.957031 59.15625 193.730469 58.886719 193.183594 L 58.097656 191.585938 L 47.628906 196.703125 L 46.351562 218.15625 L 52.011719 212.050781 C 52.019531 212.039062 52.03125 212.027344 52.039062 212.015625 L 57.503906 206.125 C 57.503906 206.121094 57.507812 206.117188 57.511719 206.113281 L 67.761719 195.054688 C 68.179688 194.601562 68.886719 194.578125 69.335938 194.996094 C 69.789062 195.417969 69.8125 196.125 69.394531 196.574219 L 59.421875 207.335938 L 59.113281 215.316406 L 67.625 220.515625 L 80.035156 220.894531 C 80.652344 220.914062 81.136719 221.425781 81.117188 222.042969 C 81.097656 222.660156 80.582031 223.144531 79.96875 223.125 L 67.28125 222.738281 C 67.269531 222.738281 67.253906 222.738281 67.242188 222.738281 L 57.734375 222.445312 C 57.730469 222.445312 57.726562 222.445312 57.722656 222.445312 L 46.117188 222.09375 L 45.28125 236.097656 C 45.246094 236.710938 44.714844 237.179688 44.101562 237.144531 C 43.488281 237.109375 43.019531 236.578125 43.054688 235.960938 L 45.785156 190.164062 C 45.824219 189.546875 46.351562 189.078125 46.964844 189.113281 C 47.582031 189.152344 48.046875 189.679688 48.011719 190.296875 L 47.78125 194.140625 L 57.105469 189.582031 L 56.097656 187.542969 C 55.964844 187.273438 55.945312 186.964844 56.042969 186.683594 C 56.140625 186.398438 56.347656 186.167969 56.617188 186.039062 L 64.085938 182.464844 C 64.640625 182.199219 65.304688 182.433594 65.570312 182.992188 Z M 47.769531 219.90625 L 56.695312 220.179688 L 56.835938 216.542969 L 53.039062 214.222656 Z M 54.585938 212.550781 L 56.933594 213.984375 L 57.09375 209.847656 Z M 59.015625 217.875 L 58.921875 220.25 L 63.113281 220.375 Z M 85.4375 226.328125 C 85.734375 226.867188 85.539062 227.546875 85.003906 227.847656 L 59.3125 242.144531 C 58.773438 242.441406 58.09375 242.25 57.796875 241.710938 C 57.496094 241.171875 57.691406 240.492188 58.230469 240.191406 L 83.921875 225.894531 C 84.457031 225.59375 85.136719 225.789062 85.4375 226.328125 Z M 85.4375 226.328125 " fill-opacity="1" fill-rule="evenodd"/><path fill="#c4c4c4" d="M 37.007812 144.535156 C 36.777344 144.449219 36.65625 144.191406 36.742188 143.960938 L 38.234375 139.867188 C 38.320312 139.636719 38.574219 139.519531 38.804688 139.601562 L 55.136719 145.582031 C 55.367188 145.667969 55.488281 145.921875 55.402344 146.152344 L 53.910156 150.246094 C 53.828125 150.476562 53.570312 150.597656 53.339844 150.511719 Z M 37.007812 144.535156 " fill-opacity="1" fill-rule="nonzero"/><path fill="#c4c4c4" d="M 42.460938 133.628906 C 42.234375 133.53125 42.128906 133.269531 42.222656 133.042969 L 43.902344 129.027344 C 44 128.796875 44.261719 128.691406 44.488281 128.785156 L 60.523438 135.523438 C 60.75 135.617188 60.855469 135.878906 60.761719 136.105469 L 59.082031 140.125 C 58.984375 140.351562 58.726562 140.460938 58.496094 140.363281 Z M 42.460938 133.628906 " fill-opacity="1" fill-rule="nonzero"/><path fill="#787878" d="M 40.882812 108.367188 C 42.726562 114.878906 51.246094 114.808594 51.042969 107.113281 C 53.683594 108.359375 54.785156 104.914062 56.035156 103.046875 C 60.386719 102.375 61.277344 97 57.765625 95.28125 C 62.058594 91.875 60.046875 86.472656 54.523438 86.75 C 53.035156 80.519531 44.542969 80.824219 42.890625 87.558594 C 35.425781 85.816406 33.679688 92.859375 38.386719 97 C 31.101562 100.785156 33.296875 108.949219 40.882812 108.367188 Z M 40.882812 108.367188 " fill-opacity="1" fill-rule="nonzero"/><path fill="#e5e5e5" d="M 48.207031 152.160156 L 59.089844 124.390625 C 59.242188 124 59.710938 123.84375 60.0625 124.0625 L 74.363281 132.910156 C 74.632812 133.078125 74.746094 133.402344 74.644531 133.699219 L 65.671875 159.714844 C 65.554688 160.058594 65.179688 160.246094 64.832031 160.132812 L 49.585938 155.101562 C 48.367188 154.699219 47.738281 153.355469 48.207031 152.160156 Z M 48.207031 152.160156 " fill-opacity="1" fill-rule="nonzero"/><path fill="#3b3b3b" d="M 229.507812 233.53125 L 221.148438 227.386719 L 222.070312 226.125 L 230.433594 232.269531 Z M 229.507812 233.53125 " fill-opacity="1" fill-rule="evenodd"/><path fill="#c4c4c4" d="M 55.570312 101.027344 C 61.796875 104.5 77.640625 111.269531 87.867188 111.683594 C 88.308594 111.699219 88.628906 112.128906 88.503906 112.558594 L 84.457031 126.484375 C 84.441406 126.539062 84.417969 126.589844 84.390625 126.636719 C 79.933594 134.171875 70.375 146.859375 67.433594 137.871094 C 64.597656 129.203125 52.96875 119.058594 46.476562 114.660156 C 46.0625 114.382812 45.949219 113.820312 46.230469 113.40625 L 54.378906 101.308594 C 54.644531 100.917969 55.160156 100.796875 55.570312 101.027344 Z M 55.570312 101.027344 " fill-opacity="1" fill-rule="nonzero"/><path fill="#787878" d="M 50.230469 117.417969 C 49.992188 117.234375 49.757812 117.050781 49.527344 116.871094 L 59.035156 102.808594 C 59.296875 102.9375 59.570312 103.070312 59.847656 103.199219 Z M 50.230469 117.417969 " fill-opacity="1" fill-rule="evenodd"/><path fill="#787878" d="M 59.773438 149.066406 C 59.773438 150.703125 58.449219 152.027344 56.820312 152.027344 C 55.1875 152.027344 53.867188 150.703125 53.867188 149.066406 C 53.867188 147.433594 55.1875 146.105469 56.820312 146.105469 C 58.449219 146.105469 59.773438 147.433594 59.773438 149.066406 Z M 59.773438 149.066406 " fill-opacity="1" fill-rule="nonzero"/><path fill="#787878" d="M 63.449219 138.679688 C 63.449219 140.3125 62.128906 141.640625 60.496094 141.640625 C 58.867188 141.640625 57.542969 140.3125 57.542969 138.679688 C 57.542969 137.042969 58.867188 135.71875 60.496094 135.71875 C 62.128906 135.71875 63.449219 137.042969 63.449219 138.679688 Z M 63.449219 138.679688 " fill-opacity="1" fill-rule="nonzero"/><path fill="#ffed4f" d="M 264.578125 197.15625 L 227.074219 195.089844 L 232.8125 180.957031 Z M 264.578125 197.15625 " fill-opacity="1" fill-rule="nonzero"/><path fill="#bd8a26" d="M 245.265625 187.308594 L 246.28125 187.828125 L 244.179688 196.03125 L 243.046875 195.96875 Z M 241.589844 185.433594 L 242.605469 185.953125 L 240.082031 195.804688 L 238.945312 195.742188 Z M 241.589844 185.433594 " fill-opacity="1" fill-rule="evenodd"/><path fill="#fbff46" d="M 60.417969 112.03125 C 60.976562 111.769531 61.636719 112.011719 61.898438 112.570312 L 64.222656 117.582031 L 65.613281 114.53125 C 65.792969 114.136719 66.1875 113.882812 66.621094 113.878906 C 67.058594 113.878906 67.453125 114.128906 67.636719 114.523438 L 70.535156 120.722656 C 70.796875 121.28125 70.554688 121.945312 70 122.207031 C 69.441406 122.46875 68.777344 122.230469 68.515625 121.671875 L 66.640625 117.65625 L 65.246094 120.710938 C 65.0625 121.109375 64.667969 121.363281 64.234375 121.363281 C 63.800781 121.367188 63.402344 121.113281 63.21875 120.71875 L 59.875 113.515625 C 59.617188 112.953125 59.859375 112.289062 60.417969 112.03125 Z M 60.417969 112.03125 " fill-opacity="1" fill-rule="evenodd"/><g clip-path="url(#3609e1be97)"><path fill="#787878" d="M 26.34375 139.191406 C 25.726562 136.671875 22.578125 135.800781 20.621094 137.855469 C 20.363281 138.121094 19.941406 138.132812 19.675781 137.875 C 19.40625 137.621094 19.398438 137.195312 19.652344 136.929688 C 22.285156 134.167969 26.753906 135.246094 27.640625 138.867188 C 28.277344 141.367188 31.460938 142.242188 33.425781 140.21875 C 33.683594 139.953125 34.105469 139.945312 34.371094 140.207031 C 34.636719 140.460938 34.640625 140.886719 34.382812 141.152344 C 31.746094 143.875 27.253906 142.789062 26.34375 139.195312 Z M 26.34375 139.191406 " fill-opacity="1" fill-rule="evenodd"/></g><path fill="#787878" d="M 32.140625 127.574219 C 31.523438 125.050781 28.375 124.183594 26.417969 126.238281 C 26.160156 126.503906 25.738281 126.515625 25.46875 126.257812 C 25.203125 126.003906 25.195312 125.578125 25.449219 125.3125 C 28.082031 122.550781 32.546875 123.628906 33.4375 127.253906 C 34.070312 129.75 37.257812 130.628906 39.222656 128.601562 C 39.480469 128.335938 39.902344 128.328125 40.167969 128.585938 C 40.433594 128.847656 40.4375 129.269531 40.179688 129.535156 C 37.542969 132.257812 33.050781 131.175781 32.140625 127.578125 Z M 32.140625 127.574219 " fill-opacity="1" fill-rule="evenodd"/><path fill="#e79d2d" d="M 213.023438 229.609375 L 218.84375 230.925781 C 219.105469 230.984375 219.371094 230.886719 219.53125 230.671875 L 224.46875 223.984375 C 224.628906 223.769531 224.644531 223.480469 224.511719 223.25 L 221.511719 218.039062 C 221.269531 217.621094 220.675781 217.585938 220.390625 217.976562 L 212.628906 228.558594 C 212.34375 228.945312 212.550781 229.5 213.023438 229.609375 Z M 213.023438 229.609375 " fill-opacity="1" fill-rule="nonzero"/><path fill="#57b5dd" d="M 235.433594 172.359375 C 235.433594 220.355469 196.609375 259.261719 148.71875 259.261719 C 100.824219 259.261719 62.003906 220.355469 62.003906 172.359375 C 62.003906 124.359375 100.824219 85.453125 148.71875 85.453125 C 196.609375 85.453125 235.433594 124.359375 235.433594 172.359375 Z M 235.433594 172.359375 " fill-opacity="1" fill-rule="nonzero"/><path fill="#61ee80" d="M 196.910156 100.097656 C 214.746094 112.070312 227.898438 130.496094 233.046875 152.039062 C 229.300781 155.097656 226.074219 151.734375 224.453125 152.195312 C 223.355469 152.507812 223.199219 154.066406 223.035156 155.679688 C 222.816406 157.832031 223.648438 160.691406 221.164062 160.179688 C 216.816406 159.289062 215.257812 152.867188 215.257812 144.824219 C 215.257812 136.945312 208.839844 139.410156 201.875 142.085938 C 201.726562 142.140625 201.582031 142.195312 201.4375 142.253906 C 194.304688 144.992188 179.8125 143.203125 174.519531 134.433594 C 171.660156 129.699219 173.433594 125.828125 174.835938 122.765625 C 176.03125 120.15625 176.953125 118.136719 174.519531 116.671875 C 169.226562 113.488281 167.832031 106.507812 174.519531 107.402344 C 178.425781 107.925781 181.382812 110.199219 183.851562 112.101562 C 185.613281 113.457031 187.125 114.621094 188.5625 114.828125 C 190.351562 115.089844 190.601562 114.390625 191.542969 111.765625 C 192.351562 109.507812 193.667969 105.824219 196.910156 100.097656 Z M 196.910156 100.097656 " fill-opacity="1" fill-rule="evenodd"/><path fill="#61ee80" d="M 173.347656 186.542969 C 164.601562 182.859375 163.707031 173.867188 173.347656 164.648438 L 200.546875 156.773438 C 209.742188 157.667969 212.527344 160.460938 212.527344 167.890625 C 212.527344 175.316406 218.492188 170.851562 223.5625 175.484375 C 228.632812 180.121094 223.5625 187.941406 218.492188 196.039062 C 213.417969 204.136719 210.1875 227.148438 204 227.875 C 197.816406 228.601562 187.894531 205.253906 187.671875 203.859375 C 187.449219 202.460938 182.097656 190.230469 173.347656 186.542969 Z M 173.347656 186.542969 " fill-opacity="1" fill-rule="nonzero"/><path fill="#ff9e45" d="M 148.71875 85.453125 C 137.328125 85.453125 126.054688 87.699219 115.53125 92.066406 C 105.011719 96.433594 95.453125 102.835938 87.402344 110.90625 C 79.347656 118.976562 72.960938 128.554688 68.601562 139.101562 C 64.246094 149.644531 62.003906 160.945312 62.003906 172.359375 C 62.003906 183.769531 64.246094 195.070312 68.601562 205.613281 C 72.960938 216.160156 79.347656 225.738281 87.402344 233.808594 C 95.453125 241.878906 105.011719 248.28125 115.53125 252.648438 C 126.054688 257.015625 137.328125 259.261719 148.71875 259.261719 Z M 148.71875 85.453125 " fill-opacity="1" fill-rule="nonzero"/><path fill="#f0443a" d="M 62.519531 181.84375 C 65.339844 183.425781 68.824219 184.523438 71.941406 185.507812 C 73.25 185.917969 74.496094 186.3125 75.601562 186.710938 C 81.003906 188.667969 86.800781 187.660156 84.125 182.078125 C 83.824219 181.445312 83.503906 180.816406 83.1875 180.199219 C 80.703125 175.328125 78.445312 170.902344 86.800781 168.671875 C 90.652344 167.644531 93.683594 167.429688 95.921875 167.269531 C 99.15625 167.039062 100.734375 166.929688 100.734375 164.648438 C 100.734375 160.796875 97.667969 156.886719 94.9375 154.148438 C 93.675781 152.882812 94.488281 151.714844 95.304688 150.535156 C 96.253906 149.164062 97.214844 147.78125 94.9375 146.21875 C 90.703125 143.3125 92.039062 134.601562 99.175781 132.871094 C 106.308594 131.140625 104.96875 127.0625 100.734375 121.253906 C 99.359375 119.367188 98.738281 117.402344 98.152344 115.558594 C 97.058594 112.105469 96.101562 109.085938 90.601562 107.855469 C 89.511719 108.84375 88.441406 109.859375 87.402344 110.90625 C 79.347656 118.976562 72.960938 128.554688 68.601562 139.101562 C 64.246094 149.644531 62.003906 160.945312 62.003906 172.359375 C 62.003906 175.53125 62.175781 178.699219 62.519531 181.84375 Z M 62.519531 181.84375 " fill-opacity="1" fill-rule="evenodd"/><path fill="#ffffff" d="M 205.5625 150.855469 C 205.5625 162.730469 195.957031 172.359375 184.105469 172.359375 C 172.253906 172.359375 162.648438 162.730469 162.648438 150.855469 C 162.648438 138.980469 172.253906 129.351562 184.105469 129.351562 C 195.957031 129.351562 205.5625 138.980469 205.5625 150.855469 Z M 205.5625 150.855469 " fill-opacity="1" fill-rule="nonzero"/><path fill="#f0443a" d="M 110.097656 250.167969 C 110.171875 249.769531 110.207031 249.320312 110.207031 248.820312 C 110.207031 241.835938 114.445312 232.957031 118.679688 230.050781 C 122.914062 227.148438 123.917969 223.460938 120.796875 219.21875 C 118.554688 216.167969 120.742188 213.203125 123.433594 209.558594 C 124.488281 208.132812 125.621094 206.601562 126.59375 204.917969 C 130.046875 198.945312 122.191406 193.078125 114.445312 194.027344 C 106.695312 194.976562 103.074219 192.128906 97.054688 186.710938 C 91.039062 181.292969 86.078125 185.148438 88.195312 189.617188 C 89.207031 191.757812 88.535156 193.933594 87.902344 195.988281 C 87.210938 198.21875 86.570312 200.296875 88.195312 202.015625 C 89.074219 202.945312 90.109375 203.828125 91.203125 204.757812 C 93.976562 207.125 97.117188 209.804688 99.007812 214.359375 C 100.761719 218.589844 100.53125 222.214844 100.257812 226.558594 C 100.019531 230.359375 99.746094 234.710938 100.734375 240.496094 C 101.066406 242.433594 101.523438 244.140625 102.0625 245.613281 C 104.65625 247.273438 107.339844 248.792969 110.097656 250.167969 Z M 110.097656 250.167969 " fill-opacity="1" fill-rule="evenodd"/><path fill="#ffffff" d="M 101.917969 169.066406 C 99.714844 167.679688 97.785156 165.90625 96.222656 163.832031 C 95.859375 163.351562 96.101562 162.671875 96.671875 162.484375 C 109.183594 158.363281 119.394531 149.898438 127.742188 136.445312 C 128.046875 135.957031 128.726562 135.867188 129.113281 136.292969 C 130.890625 138.222656 132.300781 140.46875 133.269531 142.914062 C 134.378906 145.710938 134.886719 148.710938 134.765625 151.71875 C 134.648438 154.722656 133.898438 157.671875 132.570312 160.371094 C 131.242188 163.066406 129.363281 165.457031 127.054688 167.382812 C 124.746094 169.308594 122.0625 170.726562 119.171875 171.546875 C 116.285156 172.363281 113.253906 172.566406 110.28125 172.140625 C 107.3125 171.710938 104.460938 170.664062 101.917969 169.066406 Z M 101.917969 169.066406 " fill-opacity="1" fill-rule="nonzero"/><path fill="#3b3b3b" d="M 166.710938 163.445312 C 164.15625 159.90625 162.648438 155.554688 162.648438 150.855469 C 162.648438 149.769531 162.730469 148.703125 162.882812 147.660156 C 164.894531 144.382812 168.503906 142.199219 172.625 142.199219 C 178.933594 142.199219 184.050781 147.324219 184.050781 153.648438 C 184.050781 159.96875 178.933594 165.097656 172.625 165.097656 C 170.460938 165.097656 168.433594 164.492188 166.710938 163.445312 Z M 166.710938 163.445312 " fill-opacity="1" fill-rule="evenodd"/><path fill="#3b3b3b" d="M 134.667969 148.613281 C 134.777344 149.640625 134.808594 150.679688 134.765625 151.71875 C 134.648438 154.722656 133.898438 157.671875 132.570312 160.371094 C 131.242188 163.066406 129.363281 165.457031 127.054688 167.382812 C 125.765625 168.457031 124.355469 169.375 122.863281 170.117188 C 119.691406 167.886719 117.621094 164.191406 117.621094 160.015625 C 117.621094 153.199219 123.132812 147.671875 129.9375 147.671875 C 131.613281 147.671875 133.210938 148.007812 134.667969 148.613281 Z M 134.667969 148.613281 " fill-opacity="1" fill-rule="evenodd"/><path fill="#b32626" d="M 203.632812 119.398438 C 199.648438 111.121094 188.078125 109.597656 182.230469 116.808594 C 181.574219 117.625 180.378906 117.746094 179.566406 117.085938 C 178.753906 116.425781 178.632812 115.230469 179.289062 114.414062 C 186.933594 104.984375 201.886719 107.035156 207.042969 117.746094 C 207.5 118.691406 207.105469 119.828125 206.160156 120.28125 C 205.21875 120.738281 204.085938 120.339844 203.632812 119.398438 Z M 203.632812 119.398438 " fill-opacity="1" fill-rule="evenodd"/><path fill="#b32626" d="M 124.414062 124.015625 C 125.414062 124.324219 125.980469 125.382812 125.675781 126.386719 C 123.695312 132.890625 115.664062 143.027344 101.949219 146.710938 C 100.9375 146.984375 99.898438 146.382812 99.628906 145.371094 C 99.359375 144.355469 99.957031 143.316406 100.96875 143.042969 C 113.445312 139.691406 120.460938 130.503906 122.050781 125.28125 C 122.355469 124.277344 123.414062 123.710938 124.414062 124.015625 Z M 124.414062 124.015625 " fill-opacity="1" fill-rule="evenodd"/><path fill="#3b3b3b" d="M 99.789062 200.5 C 99.855469 199.453125 100.757812 198.65625 101.800781 198.722656 C 114.679688 199.539062 126.097656 205.632812 131.074219 217.710938 C 131.472656 218.679688 131.015625 219.789062 130.046875 220.191406 C 129.078125 220.589844 127.972656 220.128906 127.574219 219.160156 C 123.296875 208.785156 113.429688 203.265625 101.5625 202.515625 C 100.519531 202.449219 99.722656 201.546875 99.789062 200.5 Z M 99.789062 200.5 " fill-opacity="1" fill-rule="evenodd"/><path fill="#ffffff" d="M 166.957031 215.820312 C 168.800781 223.554688 176.636719 227.820312 189.75 223.359375 C 205.699219 217.933594 211.652344 197.175781 207.136719 186.609375 C 204.085938 179.476562 197.703125 181.585938 196.101562 186.609375 C 194.5 191.632812 190.808594 198.394531 180.21875 200.628906 C 169.617188 202.863281 165.4375 209.457031 166.957031 215.820312 Z M 166.957031 215.820312 " fill-opacity="1" fill-rule="nonzero"/><g clip-path="url(#34b3bfc13f)"><path fill="#3dd8ed" d="M 255.933594 174.707031 C 256.835938 174.507812 257.726562 175.078125 257.925781 175.980469 L 262.046875 194.613281 L 278.925781 200.015625 C 279.804688 200.296875 280.289062 201.238281 280.007812 202.121094 C 279.726562 203 278.785156 203.488281 277.90625 203.207031 L 261.027344 197.804688 L 246.917969 210.578125 C 246.234375 211.199219 245.175781 211.144531 244.554688 210.457031 C 243.9375 209.769531 243.992188 208.710938 244.675781 208.089844 L 258.777344 195.328125 L 254.664062 176.707031 C 254.460938 175.800781 255.03125 174.90625 255.933594 174.707031 Z M 255.933594 174.707031 " fill-opacity="1" fill-rule="evenodd"/></g><path fill="#3b4d69" d="M 263.074219 195.859375 C 263.074219 197.371094 261.851562 198.597656 260.34375 198.597656 C 258.835938 198.597656 257.613281 197.371094 257.613281 195.859375 C 257.613281 194.347656 258.835938 193.125 260.34375 193.125 C 261.851562 193.125 263.074219 194.347656 263.074219 195.859375 Z M 263.074219 195.859375 " fill-opacity="1" fill-rule="nonzero"/><path fill="#55ddef" d="M 224.265625 238.25 L 235.261719 221.039062 C 235.566406 220.566406 236.277344 220.652344 236.457031 221.183594 L 240.703125 233.640625 C 240.921875 234.289062 240.835938 235 240.464844 235.574219 L 229.785156 252.15625 C 229.488281 252.617188 228.796875 252.546875 228.601562 252.035156 L 224.0625 240.261719 C 223.804688 239.597656 223.882812 238.851562 224.265625 238.25 Z M 224.265625 238.25 " fill-opacity="1" fill-rule="nonzero"/><path fill="#ffffff" d="M 225.628906 244.328125 L 225.230469 243.292969 L 229.164062 237.109375 L 227.660156 232.9375 L 228.265625 231.988281 L 229.769531 236.160156 L 233.515625 230.277344 L 232.015625 226.121094 L 232.621094 225.171875 L 234.121094 229.324219 L 237.449219 224.09375 L 237.820312 225.175781 L 234.503906 230.386719 L 235.886719 234.222656 L 239.175781 229.160156 L 239.539062 230.234375 L 236.265625 235.273438 L 237.84375 239.644531 L 237.238281 240.589844 L 235.65625 236.214844 L 231.886719 242.023438 L 233.476562 246.429688 L 232.867188 247.371094 L 231.277344 242.960938 L 227.402344 248.929688 L 227.007812 247.898438 L 230.898438 241.90625 L 229.546875 238.167969 Z M 230.152344 237.21875 L 233.898438 231.335938 L 235.277344 235.160156 L 231.507812 240.96875 Z M 230.152344 237.21875 " fill-opacity="1" fill-rule="evenodd"/><path fill="#ffed4f" d="M 60.054688 240.34375 L 41.625 231.386719 C 40.667969 230.921875 39.539062 231.53125 39.398438 232.585938 L 37.660156 245.585938 C 37.519531 246.652344 38.460938 247.539062 39.511719 247.328125 L 59.683594 243.285156 C 61.148438 242.988281 61.402344 240.996094 60.054688 240.34375 Z M 60.054688 240.34375 " fill-opacity="1" fill-rule="nonzero"/><path fill="#787878" d="M 46.957031 239.882812 C 46.957031 241.332031 45.78125 242.507812 44.335938 242.507812 C 42.890625 242.507812 41.714844 241.332031 41.714844 239.882812 C 41.714844 238.433594 42.890625 237.257812 44.335938 237.257812 C 45.78125 237.257812 46.957031 238.433594 46.957031 239.882812 Z M 46.957031 239.882812 " fill-opacity="1" fill-rule="nonzero"/><path fill="#787878" d="M 67.628906 77.992188 C 66.445312 81.703125 70.464844 84.074219 72.789062 80.242188 C 74.644531 83.203125 79.097656 80.480469 78.191406 76.886719 C 82.957031 76.609375 83.507812 72.660156 80.828125 71.238281 C 82.089844 67.761719 78.011719 65.519531 75.117188 68.355469 C 72.160156 65.390625 69.125 68.355469 70.03125 71.710938 C 65.421875 71.515625 63.886719 76.132812 67.628906 77.992188 Z M 67.628906 77.992188 " fill-opacity="1" fill-rule="nonzero"/><path fill="#787878" d="M 32.898438 188.425781 C 35.46875 191.351562 39.5625 189.117188 37.480469 185.148438 C 40.96875 185.082031 40.929688 179.851562 37.386719 178.78125 C 39.605469 174.542969 36.511719 172.035156 33.914062 173.609375 C 31.589844 170.734375 27.570312 173.085938 28.507812 177.035156 C 24.453125 178.050781 25.425781 182.179688 28.765625 183.128906 C 26.222656 186.988281 29.382812 190.6875 32.898438 188.425781 Z M 32.898438 188.425781 " fill-opacity="1" fill-rule="nonzero"/><path fill="#787878" d="M 71.550781 273.019531 C 75.339844 273.890625 77.359375 269.679688 73.355469 267.675781 C 76.148438 265.578125 73.066406 261.359375 69.570312 262.5625 C 68.894531 257.824219 64.921875 257.601562 63.734375 260.398438 C 60.171875 259.429688 58.28125 263.691406 61.34375 266.34375 C 58.644531 269.542969 61.84375 272.328125 65.105469 271.140625 C 65.292969 275.761719 70.015625 276.914062 71.550781 273.019531 Z M 71.550781 273.019531 " fill-opacity="1" fill-rule="nonzero"/><path fill="#f0443a" d="M 133.144531 93.542969 C 131.976562 94.664062 130.921875 95.679688 130.714844 97.570312 C 130.480469 99.710938 128.898438 100.191406 127.210938 100.707031 C 125.28125 101.296875 123.214844 101.925781 122.859375 105.113281 C 122.1875 111.085938 117.5625 114.996094 114.441406 107.847656 C 112.996094 104.535156 110.316406 104.089844 107.589844 103.636719 C 105.027344 103.207031 102.425781 102.777344 100.769531 99.945312 C 105.414062 96.855469 110.355469 94.214844 115.53125 92.066406 C 122.316406 89.25 129.410156 87.316406 136.648438 86.296875 C 136.40625 90.398438 134.675781 92.0625 133.144531 93.542969 Z M 133.144531 93.542969 " fill-opacity="1" fill-rule="evenodd"/><path fill="#ffffff" d="M 236.492188 119.78125 C 237.445312 119.707031 238.117188 120.109375 238.445312 120.644531 C 238.773438 121.171875 238.816406 121.917969 238.328125 122.660156 L 238.328125 122.664062 C 237.585938 123.820312 237.601562 125.125 238.21875 126.125 C 238.496094 126.574219 238.882812 126.945312 239.351562 127.210938 L 240.027344 126.050781 C 239.738281 125.890625 239.511719 125.671875 239.355469 125.421875 C 239.023438 124.878906 238.976562 124.128906 239.449219 123.394531 C 240.203125 122.242188 240.199219 120.9375 239.582031 119.9375 C 238.96875 118.941406 237.796875 118.335938 236.390625 118.445312 C 235.449219 118.511719 234.773438 118.101562 234.441406 117.558594 C 234.105469 117.015625 234.058594 116.265625 234.53125 115.53125 C 235.3125 114.332031 235.171875 112.960938 234.488281 111.941406 C 234.445312 111.878906 234.398438 111.820312 234.355469 111.757812 L 232.015625 111.757812 C 232.601562 111.898438 233.078125 112.25 233.378906 112.695312 C 233.800781 113.316406 233.867188 114.101562 233.414062 114.796875 L 233.410156 114.800781 C 232.667969 115.957031 232.683594 117.265625 233.300781 118.265625 C 233.917969 119.261719 235.085938 119.882812 236.488281 119.78125 Z M 236.492188 119.78125 " fill-opacity="1" fill-rule="evenodd"/><g clip-path="url(#b7d954fb2d)"><path fill="#eff0f2" d="M 239.984375 58.859375 L 239.984375 47.140625 L 170.222656 47.140625 L 170.222656 15.824219 L 239.984375 15.824219 L 239.984375 4.109375 L 276.617188 31.484375 Z M 239.984375 58.859375 " fill-opacity="1" fill-rule="nonzero"/></g><g clip-path="url(#64bf538b2f)"><path fill="#eff0f2" d="M 60.015625 58.859375 L 60.015625 47.140625 L 129.777344 47.140625 L 129.777344 15.824219 L 60.015625 15.824219 L 60.015625 4.109375 L 23.382812 31.484375 Z M 60.015625 58.859375 " fill-opacity="1" fill-rule="nonzero"/></g><g fill="#000000" fill-opacity="1"><g transform="translate(39.93213, 36.768172)"><g><path d="M 1.046875 0 L 1.046875 -11.78125 L 3.859375 -11.78125 C 6.460938 -11.78125 8.050781 -10.625 8.625 -8.3125 C 8.8125 -7.5625 8.90625 -6.796875 8.90625 -6.015625 C 8.90625 -5.242188 8.847656 -4.582031 8.734375 -4.03125 C 8.628906 -3.476562 8.453125 -2.953125 8.203125 -2.453125 C 7.953125 -1.953125 7.640625 -1.523438 7.265625 -1.171875 C 6.429688 -0.390625 5.296875 0 3.859375 0 Z M 2.203125 -0.96875 L 3.859375 -0.96875 C 5.546875 -0.96875 6.695312 -1.691406 7.3125 -3.140625 C 7.613281 -3.859375 7.765625 -4.742188 7.765625 -5.796875 C 7.765625 -7.648438 7.40625 -8.972656 6.6875 -9.765625 C 6.40625 -10.078125 6.023438 -10.328125 5.546875 -10.515625 C 5.066406 -10.710938 4.503906 -10.8125 3.859375 -10.8125 L 2.203125 -10.8125 Z M 2.203125 -0.96875 "/></g></g><g transform="translate(49.372114, 36.768172)"><g><path d="M 1 -2.09375 L 1 -8.203125 L 2.03125 -8.203125 L 2.03125 -2.09375 C 2.03125 -1.707031 2.164062 -1.390625 2.4375 -1.140625 C 2.71875 -0.898438 3.019531 -0.78125 3.34375 -0.78125 C 4.113281 -0.78125 4.910156 -1.226562 5.734375 -2.125 L 5.734375 -8.203125 L 6.75 -8.203125 L 6.75 0 L 5.734375 0 L 5.734375 -1.359375 C 4.992188 -0.628906 4.363281 -0.1875 3.84375 -0.03125 C 3.582031 0.0390625 3.316406 0.078125 3.046875 0.078125 C 2.453125 0.078125 1.960938 -0.0976562 1.578125 -0.453125 C 1.191406 -0.816406 1 -1.363281 1 -2.09375 Z M 1 -2.09375 "/></g></g><g transform="translate(56.984754, 36.768172)"><g><path d="M 0.9375 0 C 0.9375 0 0.9375 -2.734375 0.9375 -8.203125 L 1.953125 -8.203125 L 1.953125 -6 C 2.203125 -6.53125 2.390625 -6.898438 2.515625 -7.109375 C 3.023438 -7.890625 3.6875 -8.28125 4.5 -8.28125 C 4.5625 -8.28125 4.65625 -8.273438 4.78125 -8.265625 L 4.78125 -7.40625 C 4.425781 -7.351562 4.128906 -7.285156 3.890625 -7.203125 C 3.660156 -7.117188 3.429688 -6.984375 3.203125 -6.796875 C 2.816406 -6.472656 2.398438 -5.832031 1.953125 -4.875 L 1.953125 0 Z M 0.9375 0 "/></g></g><g transform="translate(61.953575, 36.768172)"><g><path d="M 0.9375 -9.234375 L 0.9375 -10.40625 L 2.09375 -10.40625 L 2.09375 -9.234375 Z M 1 0 L 1 -8.203125 L 2.03125 -8.203125 L 2.03125 0 Z M 1 0 "/></g></g><g transform="translate(65.19614, 36.768172)"><g><path d="M 0.9375 0 L 0.9375 -8.203125 L 1.953125 -8.203125 L 1.953125 -6.859375 C 2.410156 -7.304688 2.84375 -7.65625 3.25 -7.90625 C 3.664062 -8.15625 4.148438 -8.28125 4.703125 -8.28125 C 5.253906 -8.28125 5.722656 -8.097656 6.109375 -7.734375 C 6.492188 -7.378906 6.6875 -6.835938 6.6875 -6.109375 L 6.6875 0 L 5.65625 0 L 5.65625 -6.109375 C 5.65625 -6.492188 5.515625 -6.804688 5.234375 -7.046875 C 4.960938 -7.296875 4.664062 -7.421875 4.34375 -7.421875 C 3.570312 -7.421875 2.773438 -6.972656 1.953125 -6.078125 L 1.953125 0 Z M 0.9375 0 "/></g></g><g transform="translate(72.738796, 36.768172)"><g><path d="M 1.484375 2.984375 C 1.128906 2.828125 0.847656 2.601562 0.640625 2.3125 C 0.429688 2.019531 0.328125 1.734375 0.328125 1.453125 C 0.328125 1.179688 0.363281 0.96875 0.4375 0.8125 C 0.519531 0.65625 0.640625 0.515625 0.796875 0.390625 C 0.953125 0.265625 1.085938 0.164062 1.203125 0.09375 C 1.328125 0.0195312 1.488281 -0.0664062 1.6875 -0.171875 C 1.882812 -0.273438 2.003906 -0.335938 2.046875 -0.359375 C 1.628906 -0.453125 1.3125 -0.609375 1.09375 -0.828125 C 0.875 -1.054688 0.765625 -1.257812 0.765625 -1.4375 C 0.765625 -1.625 0.796875 -1.789062 0.859375 -1.9375 C 0.929688 -2.09375 1.039062 -2.234375 1.1875 -2.359375 C 1.414062 -2.566406 1.601562 -2.71875 1.75 -2.8125 C 1.894531 -2.90625 1.976562 -2.957031 2 -2.96875 C 1.6875 -3.226562 1.410156 -3.570312 1.171875 -4 C 0.941406 -4.425781 0.828125 -4.894531 0.828125 -5.40625 C 0.828125 -5.914062 0.96875 -6.394531 1.25 -6.84375 C 1.53125 -7.300781 1.90625 -7.65625 2.375 -7.90625 C 2.851562 -8.15625 3.316406 -8.28125 3.765625 -8.28125 C 4.210938 -8.28125 4.570312 -8.226562 4.84375 -8.125 C 5.113281 -8.019531 5.40625 -7.859375 5.71875 -7.640625 C 6.113281 -7.960938 6.429688 -8.144531 6.671875 -8.1875 C 6.992188 -8.257812 7.289062 -8.296875 7.5625 -8.296875 L 7.5625 -7.375 L 7.546875 -7.375 C 6.660156 -7.375 6.21875 -7.289062 6.21875 -7.125 C 6.476562 -6.632812 6.640625 -6.273438 6.703125 -6.046875 C 6.773438 -5.816406 6.8125 -5.585938 6.8125 -5.359375 C 6.8125 -4.523438 6.539062 -3.816406 6 -3.234375 C 5.46875 -2.660156 4.773438 -2.375 3.921875 -2.375 C 3.460938 -2.375 3 -2.472656 2.53125 -2.671875 C 2.488281 -2.628906 2.394531 -2.554688 2.25 -2.453125 C 1.9375 -2.234375 1.78125 -2.015625 1.78125 -1.796875 C 1.78125 -1.566406 1.890625 -1.40625 2.109375 -1.3125 C 2.273438 -1.25 2.484375 -1.195312 2.734375 -1.15625 C 2.984375 -1.125 3.15625 -1.097656 3.25 -1.078125 C 3.351562 -1.066406 3.523438 -1.0625 3.765625 -1.0625 C 4.347656 -1.050781 5.035156 -0.953125 5.828125 -0.765625 C 6.328125 -0.640625 6.738281 -0.398438 7.0625 -0.046875 C 7.382812 0.304688 7.546875 0.734375 7.546875 1.234375 C 7.546875 2.710938 6.300781 3.453125 3.8125 3.453125 C 2.9375 3.453125 2.160156 3.296875 1.484375 2.984375 Z M 1.359375 1.3125 C 1.359375 1.820312 1.628906 2.164062 2.171875 2.34375 C 2.648438 2.507812 3.09375 2.59375 3.5 2.59375 C 3.914062 2.59375 4.191406 2.585938 4.328125 2.578125 C 4.460938 2.578125 4.632812 2.566406 4.84375 2.546875 C 5.050781 2.535156 5.222656 2.507812 5.359375 2.46875 C 5.492188 2.4375 5.640625 2.382812 5.796875 2.3125 C 5.960938 2.25 6.09375 2.171875 6.1875 2.078125 C 6.40625 1.859375 6.515625 1.59375 6.515625 1.28125 C 6.515625 0.976562 6.410156 0.734375 6.203125 0.546875 C 5.992188 0.359375 5.726562 0.222656 5.40625 0.140625 C 5.09375 0.0664062 4.78125 0.015625 4.46875 -0.015625 C 4.15625 -0.046875 3.859375 -0.0664062 3.578125 -0.078125 C 3.296875 -0.0859375 3.128906 -0.101562 3.078125 -0.125 C 2.515625 0.0820312 2.148438 0.234375 1.984375 0.328125 C 1.566406 0.578125 1.359375 0.90625 1.359375 1.3125 Z M 2.421875 -6.84375 C 2.035156 -6.457031 1.84375 -5.960938 1.84375 -5.359375 C 1.84375 -4.753906 2.023438 -4.25 2.390625 -3.84375 C 2.753906 -3.4375 3.25 -3.234375 3.875 -3.234375 C 4.5 -3.234375 4.972656 -3.4375 5.296875 -3.84375 C 5.617188 -4.257812 5.78125 -4.757812 5.78125 -5.34375 C 5.78125 -5.9375 5.617188 -6.429688 5.296875 -6.828125 C 4.984375 -7.222656 4.523438 -7.421875 3.921875 -7.421875 C 3.316406 -7.421875 2.816406 -7.226562 2.421875 -6.84375 Z M 2.421875 -6.84375 "/></g></g><g transform="translate(80.553609, 36.768172)"><g/></g><g transform="translate(84.534888, 36.768172)"><g><path d="M 0.1875 -10.8125 L 0.1875 -11.78125 L 8.0625 -11.78125 L 8.0625 -10.8125 L 4.703125 -10.8125 L 4.703125 0 L 3.546875 0 L 3.546875 -10.8125 Z M 0.1875 -10.8125 "/></g></g><g transform="translate(92.79293, 36.768172)"><g><path d="M 0.9375 0 C 0.9375 0 0.9375 -2.734375 0.9375 -8.203125 L 1.953125 -8.203125 L 1.953125 -6 C 2.203125 -6.53125 2.390625 -6.898438 2.515625 -7.109375 C 3.023438 -7.890625 3.6875 -8.28125 4.5 -8.28125 C 4.5625 -8.28125 4.65625 -8.273438 4.78125 -8.265625 L 4.78125 -7.40625 C 4.425781 -7.351562 4.128906 -7.285156 3.890625 -7.203125 C 3.660156 -7.117188 3.429688 -6.984375 3.203125 -6.796875 C 2.816406 -6.472656 2.398438 -5.832031 1.953125 -4.875 L 1.953125 0 Z M 0.9375 0 "/></g></g><g transform="translate(97.761751, 36.768172)"><g><path d="M 1 -2.09375 L 1 -8.203125 L 2.03125 -8.203125 L 2.03125 -2.09375 C 2.03125 -1.707031 2.164062 -1.390625 2.4375 -1.140625 C 2.71875 -0.898438 3.019531 -0.78125 3.34375 -0.78125 C 4.113281 -0.78125 4.910156 -1.226562 5.734375 -2.125 L 5.734375 -8.203125 L 6.75 -8.203125 L 6.75 0 L 5.734375 0 L 5.734375 -1.359375 C 4.992188 -0.628906 4.363281 -0.1875 3.84375 -0.03125 C 3.582031 0.0390625 3.316406 0.078125 3.046875 0.078125 C 2.453125 0.078125 1.960938 -0.0976562 1.578125 -0.453125 C 1.191406 -0.816406 1 -1.363281 1 -2.09375 Z M 1 -2.09375 "/></g></g><g transform="translate(105.374391, 36.768172)"><g><path d="M 0.9375 0 L 0.9375 -8.203125 L 1.953125 -8.203125 L 1.953125 -6.84375 C 2.671875 -7.5625 3.300781 -8.003906 3.84375 -8.171875 C 4.101562 -8.242188 4.421875 -8.28125 4.796875 -8.28125 C 5.179688 -8.28125 5.550781 -8.15625 5.90625 -7.90625 C 6.257812 -7.664062 6.492188 -7.289062 6.609375 -6.78125 C 7.367188 -7.539062 8.015625 -8 8.546875 -8.15625 C 8.804688 -8.238281 9.078125 -8.28125 9.359375 -8.28125 C 9.953125 -8.28125 10.441406 -8.097656 10.828125 -7.734375 C 11.210938 -7.378906 11.40625 -6.835938 11.40625 -6.109375 L 11.40625 0 L 10.375 0 L 10.375 -6.109375 C 10.375 -6.492188 10.234375 -6.804688 9.953125 -7.046875 C 9.679688 -7.296875 9.382812 -7.421875 9.0625 -7.421875 C 8.300781 -7.421875 7.507812 -6.972656 6.6875 -6.078125 L 6.6875 0 L 5.65625 0 L 5.65625 -6.109375 C 5.65625 -6.492188 5.515625 -6.804688 5.234375 -7.046875 C 4.960938 -7.296875 4.664062 -7.421875 4.34375 -7.421875 C 3.570312 -7.421875 2.773438 -6.972656 1.953125 -6.078125 L 1.953125 0 Z M 0.9375 0 "/></g></g><g transform="translate(117.637039, 36.768172)"><g><path d="M 1 3.1875 L 1 -8.203125 L 2.03125 -8.203125 L 2.03125 -6.921875 C 2.15625 -7.160156 2.359375 -7.394531 2.640625 -7.625 C 3.179688 -8.0625 3.742188 -8.28125 4.328125 -8.28125 C 5.421875 -8.28125 6.25 -7.6875 6.8125 -6.5 C 7.144531 -5.8125 7.3125 -5.0625 7.3125 -4.25 C 7.3125 -2.820312 6.960938 -1.6875 6.265625 -0.84375 C 5.753906 -0.226562 5.078125 0.078125 4.234375 0.078125 C 3.753906 0.078125 3.289062 -0.0625 2.84375 -0.34375 C 2.394531 -0.632812 2.125 -0.882812 2.03125 -1.09375 L 2.03125 3.1875 Z M 2.03125 -1.96875 C 2.269531 -1.632812 2.554688 -1.351562 2.890625 -1.125 C 3.234375 -0.894531 3.5625 -0.78125 3.875 -0.78125 C 4.1875 -0.78125 4.445312 -0.8125 4.65625 -0.875 C 4.863281 -0.9375 5.066406 -1.046875 5.265625 -1.203125 C 5.472656 -1.359375 5.648438 -1.5625 5.796875 -1.8125 C 6.117188 -2.375 6.28125 -3.1875 6.28125 -4.25 C 6.28125 -5.550781 5.976562 -6.460938 5.375 -6.984375 C 5.050781 -7.273438 4.648438 -7.421875 4.171875 -7.421875 C 3.515625 -7.421875 2.941406 -7.144531 2.453125 -6.59375 C 2.328125 -6.445312 2.1875 -6.269531 2.03125 -6.0625 Z M 2.03125 -1.96875 "/></g></g></g><g fill="#000000" fill-opacity="1"><g transform="translate(179.853479, 36.768172)"><g><path d="M 1.046875 0 L 1.046875 -11.78125 L 5.15625 -11.78125 C 6.375 -11.78125 7.273438 -11.296875 7.859375 -10.328125 C 8.148438 -9.816406 8.296875 -9.304688 8.296875 -8.796875 C 8.296875 -8.296875 8.238281 -7.859375 8.125 -7.484375 C 8.019531 -7.109375 7.847656 -6.757812 7.609375 -6.4375 C 7.367188 -6.113281 7.039062 -5.851562 6.625 -5.65625 C 6.207031 -5.46875 5.71875 -5.375 5.15625 -5.375 L 2.203125 -5.375 L 2.203125 0 Z M 2.203125 -6.34375 L 4.375 -6.34375 C 5.21875 -6.34375 5.890625 -6.523438 6.390625 -6.890625 C 6.898438 -7.265625 7.15625 -7.828125 7.15625 -8.578125 C 7.15625 -9.335938 6.898438 -9.898438 6.390625 -10.265625 C 5.878906 -10.628906 5.207031 -10.8125 4.375 -10.8125 L 2.203125 -10.8125 Z M 2.203125 -6.34375 "/></g></g><g transform="translate(188.68694, 36.768172)"><g><path d="M 0.578125 -4.15625 C 0.578125 -5.40625 0.859375 -6.40625 1.421875 -7.15625 C 1.984375 -7.90625 2.769531 -8.28125 3.78125 -8.28125 C 4.789062 -8.28125 5.570312 -7.898438 6.125 -7.140625 C 6.6875 -6.390625 6.96875 -5.378906 6.96875 -4.109375 C 6.96875 -2.847656 6.6875 -1.832031 6.125 -1.0625 C 5.5625 -0.289062 4.78125 0.09375 3.78125 0.09375 C 2.757812 0.09375 1.96875 -0.304688 1.40625 -1.109375 C 0.851562 -1.890625 0.578125 -2.90625 0.578125 -4.15625 Z M 1.609375 -4.109375 C 1.609375 -2.460938 2.035156 -1.421875 2.890625 -0.984375 C 3.148438 -0.847656 3.445312 -0.78125 3.78125 -0.78125 C 4.125 -0.78125 4.425781 -0.847656 4.6875 -0.984375 C 4.945312 -1.117188 5.15625 -1.289062 5.3125 -1.5 C 5.46875 -1.707031 5.59375 -1.960938 5.6875 -2.265625 C 5.863281 -2.796875 5.953125 -3.40625 5.953125 -4.09375 C 5.953125 -6.3125 5.226562 -7.421875 3.78125 -7.421875 C 2.332031 -7.421875 1.609375 -6.316406 1.609375 -4.109375 Z M 1.609375 -4.109375 "/></g></g><g transform="translate(196.245147, 36.768172)"><g><path d="M 0.625 -1.5625 L 1.390625 -2.046875 C 1.660156 -1.628906 1.960938 -1.3125 2.296875 -1.09375 C 2.640625 -0.882812 3.054688 -0.78125 3.546875 -0.78125 C 4.054688 -0.78125 4.46875 -0.921875 4.78125 -1.203125 C 5.039062 -1.429688 5.171875 -1.707031 5.171875 -2.03125 C 5.171875 -2.363281 5.113281 -2.628906 5 -2.828125 C 4.882812 -3.023438 4.726562 -3.1875 4.53125 -3.3125 C 4.175781 -3.507812 3.8125 -3.648438 3.4375 -3.734375 C 3.0625 -3.828125 2.765625 -3.910156 2.546875 -3.984375 C 2.335938 -4.066406 2.117188 -4.171875 1.890625 -4.296875 C 1.660156 -4.429688 1.460938 -4.578125 1.296875 -4.734375 C 0.921875 -5.097656 0.734375 -5.582031 0.734375 -6.1875 C 0.734375 -6.789062 0.972656 -7.289062 1.453125 -7.6875 C 1.941406 -8.082031 2.5625 -8.28125 3.3125 -8.28125 C 4.195312 -8.28125 4.945312 -7.960938 5.5625 -7.328125 C 5.675781 -7.210938 5.769531 -7.097656 5.84375 -6.984375 L 5.140625 -6.453125 C 5.097656 -6.484375 5.023438 -6.554688 4.921875 -6.671875 C 4.816406 -6.796875 4.75 -6.875 4.71875 -6.90625 L 4.515625 -7.0625 C 4.421875 -7.144531 4.34375 -7.203125 4.28125 -7.234375 L 4.015625 -7.328125 C 3.847656 -7.390625 3.566406 -7.421875 3.171875 -7.421875 C 2.773438 -7.421875 2.429688 -7.304688 2.140625 -7.078125 C 1.859375 -6.847656 1.71875 -6.597656 1.71875 -6.328125 C 1.71875 -6.066406 1.765625 -5.851562 1.859375 -5.6875 C 1.953125 -5.519531 2.09375 -5.378906 2.28125 -5.265625 C 2.582031 -5.078125 2.929688 -4.921875 3.328125 -4.796875 C 3.722656 -4.679688 3.984375 -4.601562 4.109375 -4.5625 C 4.234375 -4.519531 4.398438 -4.457031 4.609375 -4.375 C 4.828125 -4.289062 5 -4.207031 5.125 -4.125 C 5.25 -4.050781 5.390625 -3.945312 5.546875 -3.8125 C 5.703125 -3.6875 5.820312 -3.554688 5.90625 -3.421875 C 6.101562 -3.066406 6.203125 -2.679688 6.203125 -2.265625 C 6.203125 -1.578125 5.941406 -1.015625 5.421875 -0.578125 C 4.898438 -0.140625 4.289062 0.078125 3.59375 0.078125 C 2.90625 0.078125 2.328125 -0.0507812 1.859375 -0.3125 C 1.390625 -0.570312 0.976562 -0.988281 0.625 -1.5625 Z M 0.625 -1.5625 "/></g></g><g transform="translate(203.072417, 36.768172)"><g><path d="M 0.28125 -7.328125 L 0.28125 -8.203125 L 1.65625 -8.203125 L 1.65625 -11.1875 L 2.6875 -11.1875 L 2.6875 -8.203125 L 4.578125 -8.203125 L 4.578125 -7.328125 L 2.6875 -7.328125 L 2.6875 -2.125 C 2.6875 -1.601562 2.765625 -1.242188 2.921875 -1.046875 C 3.085938 -0.859375 3.351562 -0.765625 3.71875 -0.765625 C 3.875 -0.765625 4.054688 -0.773438 4.265625 -0.796875 C 4.472656 -0.828125 4.578125 -0.847656 4.578125 -0.859375 L 4.578125 -0.078125 C 4.234375 0.0351562 3.898438 0.09375 3.578125 0.09375 C 3.253906 0.09375 3.03125 0.0820312 2.90625 0.0625 C 2.789062 0.0507812 2.644531 0.0078125 2.46875 -0.0625 C 2.300781 -0.144531 2.160156 -0.265625 2.046875 -0.421875 C 1.785156 -0.785156 1.65625 -1.351562 1.65625 -2.125 L 1.65625 -7.328125 Z M 0.28125 -7.328125 "/></g></g><g transform="translate(207.784634, 36.768172)"><g><path d="M 0 -4.0625 L 0 -4.9375 L 3.984375 -4.9375 L 3.984375 -4.0625 Z M 0 -4.0625 "/></g></g><g transform="translate(211.765912, 36.768172)"><g><path d="M 0.1875 -10.8125 L 0.1875 -11.78125 L 8.0625 -11.78125 L 8.0625 -10.8125 L 4.703125 -10.8125 L 4.703125 0 L 3.546875 0 L 3.546875 -10.8125 Z M 0.1875 -10.8125 "/></g></g><g transform="translate(220.023954, 36.768172)"><g><path d="M 0.9375 0 C 0.9375 0 0.9375 -2.734375 0.9375 -8.203125 L 1.953125 -8.203125 L 1.953125 -6 C 2.203125 -6.53125 2.390625 -6.898438 2.515625 -7.109375 C 3.023438 -7.890625 3.6875 -8.28125 4.5 -8.28125 C 4.5625 -8.28125 4.65625 -8.273438 4.78125 -8.265625 L 4.78125 -7.40625 C 4.425781 -7.351562 4.128906 -7.285156 3.890625 -7.203125 C 3.660156 -7.117188 3.429688 -6.984375 3.203125 -6.796875 C 2.816406 -6.472656 2.398438 -5.832031 1.953125 -4.875 L 1.953125 0 Z M 0.9375 0 "/></g></g><g transform="translate(224.992775, 36.768172)"><g><path d="M 1 -2.09375 L 1 -8.203125 L 2.03125 -8.203125 L 2.03125 -2.09375 C 2.03125 -1.707031 2.164062 -1.390625 2.4375 -1.140625 C 2.71875 -0.898438 3.019531 -0.78125 3.34375 -0.78125 C 4.113281 -0.78125 4.910156 -1.226562 5.734375 -2.125 L 5.734375 -8.203125 L 6.75 -8.203125 L 6.75 0 L 5.734375 0 L 5.734375 -1.359375 C 4.992188 -0.628906 4.363281 -0.1875 3.84375 -0.03125 C 3.582031 0.0390625 3.316406 0.078125 3.046875 0.078125 C 2.453125 0.078125 1.960938 -0.0976562 1.578125 -0.453125 C 1.191406 -0.816406 1 -1.363281 1 -2.09375 Z M 1 -2.09375 "/></g></g><g transform="translate(232.605415, 36.768172)"><g><path d="M 0.9375 0 L 0.9375 -8.203125 L 1.953125 -8.203125 L 1.953125 -6.84375 C 2.671875 -7.5625 3.300781 -8.003906 3.84375 -8.171875 C 4.101562 -8.242188 4.421875 -8.28125 4.796875 -8.28125 C 5.179688 -8.28125 5.550781 -8.15625 5.90625 -7.90625 C 6.257812 -7.664062 6.492188 -7.289062 6.609375 -6.78125 C 7.367188 -7.539062 8.015625 -8 8.546875 -8.15625 C 8.804688 -8.238281 9.078125 -8.28125 9.359375 -8.28125 C 9.953125 -8.28125 10.441406 -8.097656 10.828125 -7.734375 C 11.210938 -7.378906 11.40625 -6.835938 11.40625 -6.109375 L 11.40625 0 L 10.375 0 L 10.375 -6.109375 C 10.375 -6.492188 10.234375 -6.804688 9.953125 -7.046875 C 9.679688 -7.296875 9.382812 -7.421875 9.0625 -7.421875 C 8.300781 -7.421875 7.507812 -6.972656 6.6875 -6.078125 L 6.6875 0 L 5.65625 0 L 5.65625 -6.109375 C 5.65625 -6.492188 5.515625 -6.804688 5.234375 -7.046875 C 4.960938 -7.296875 4.664062 -7.421875 4.34375 -7.421875 C 3.570312 -7.421875 2.773438 -6.972656 1.953125 -6.078125 L 1.953125 0 Z M 0.9375 0 "/></g></g><g transform="translate(244.868063, 36.768172)"><g><path d="M 1 3.1875 L 1 -8.203125 L 2.03125 -8.203125 L 2.03125 -6.921875 C 2.15625 -7.160156 2.359375 -7.394531 2.640625 -7.625 C 3.179688 -8.0625 3.742188 -8.28125 4.328125 -8.28125 C 5.421875 -8.28125 6.25 -7.6875 6.8125 -6.5 C 7.144531 -5.8125 7.3125 -5.0625 7.3125 -4.25 C 7.3125 -2.820312 6.960938 -1.6875 6.265625 -0.84375 C 5.753906 -0.226562 5.078125 0.078125 4.234375 0.078125 C 3.753906 0.078125 3.289062 -0.0625 2.84375 -0.34375 C 2.394531 -0.632812 2.125 -0.882812 2.03125 -1.09375 L 2.03125 3.1875 Z M 2.03125 -1.96875 C 2.269531 -1.632812 2.554688 -1.351562 2.890625 -1.125 C 3.234375 -0.894531 3.5625 -0.78125 3.875 -0.78125 C 4.1875 -0.78125 4.445312 -0.8125 4.65625 -0.875 C 4.863281 -0.9375 5.066406 -1.046875 5.265625 -1.203125 C 5.472656 -1.359375 5.648438 -1.5625 5.796875 -1.8125 C 6.117188 -2.375 6.28125 -3.1875 6.28125 -4.25 C 6.28125 -5.550781 5.976562 -6.460938 5.375 -6.984375 C 5.050781 -7.273438 4.648438 -7.421875 4.171875 -7.421875 C 3.515625 -7.421875 2.941406 -7.144531 2.453125 -6.59375 C 2.328125 -6.445312 2.1875 -6.269531 2.03125 -6.0625 Z M 2.03125 -1.96875 "/></g></g></g></svg>