<svg xmlns="http://www.w3.org/2000/svg" xmlns:xlink="http://www.w3.org/1999/xlink" width="400" zoomAndPan="magnify" viewBox="0 0 300 299.999988" height="400" preserveAspectRatio="xMidYMid meet" version="1.0"><defs><clipPath id="1c396cba6c"><path d="M 26 63.074219 L 119 63.074219 L 119 156 L 26 156 Z M 26 63.074219 " clip-rule="nonzero"/></clipPath><clipPath id="b437fd9658"><path d="M 110.535156 30.808594 L 189.285156 30.808594 L 189.285156 95.308594 L 110.535156 95.308594 Z M 110.535156 30.808594 " clip-rule="nonzero"/></clipPath><clipPath id="2bb7b80e23"><path d="M 110.535156 50 L 117 50 L 117 70 L 110.535156 70 Z M 110.535156 50 " clip-rule="nonzero"/></clipPath><clipPath id="a1b854f83b"><path d="M 141 88 L 163 88 L 163 95.308594 L 141 95.308594 Z M 141 88 " clip-rule="nonzero"/></clipPath><clipPath id="fe7fc66fb5"><path d="M 188 53 L 189.285156 53 L 189.285156 56 L 188 56 Z M 188 53 " clip-rule="nonzero"/></clipPath><clipPath id="07d6354947"><path d="M 144 33 L 189.285156 33 L 189.285156 83 L 144 83 Z M 144 33 " clip-rule="nonzero"/></clipPath><clipPath id="b0f1cbb34b"><path d="M 127 30.808594 L 144 30.808594 L 144 43 L 127 43 Z M 127 30.808594 " clip-rule="nonzero"/></clipPath><clipPath id="85ca9e182f"><path d="M 110.535156 35 L 139 35 L 139 83 L 110.535156 83 Z M 110.535156 35 " clip-rule="nonzero"/></clipPath></defs><path fill="#f9b574" d="M 71.808594 206.308594 L 71.132812 205.644531 C 65.746094 200.257812 65.746094 191.449219 71.132812 186.0625 L 95.722656 161.472656 C 105.566406 151.644531 112.804688 141.695312 124.265625 133.855469 C 131.429688 128.933594 137.097656 122.164062 143.773438 116.59375 C 155.492188 106.789062 162.5 105.21875 177.25 106.480469 C 184.804688 107.132812 198.695312 91.207031 204.980469 97.488281 L 248.980469 141.488281 C 255.925781 148.417969 231.714844 153.792969 229.617188 168.515625 L 229.558594 168.910156 C 227.324219 184.578125 220.058594 199.105469 208.855469 210.292969 L 155.273438 263.886719 C 149.886719 269.273438 141.074219 269.273438 135.6875 263.886719 L 135.027344 263.210938 C 130.105469 258.304688 129.699219 250.539062 133.761719 245.128906 L 133.652344 245.015625 L 131.871094 246.796875 C 126.484375 252.183594 117.675781 252.183594 112.289062 246.796875 L 111.625 246.132812 C 106.238281 240.746094 106.238281 231.9375 111.625 226.550781 C 106.238281 231.9375 97.429688 231.9375 92.042969 226.550781 L 91.378906 225.890625 C 85.992188 220.503906 85.992188 211.691406 91.378906 206.308594 C 85.992188 211.691406 77.183594 211.691406 71.808594 206.308594 " fill-opacity="1" fill-rule="nonzero"/><path fill="#96ddf8" d="M 245.460938 154.773438 L 271.816406 128.421875 C 274.121094 126.125 274.121094 122.382812 271.816406 120.078125 L 218.109375 66.375 C 215.800781 64.066406 212.070312 64.066406 209.765625 66.375 L 183.40625 92.726562 C 181.101562 95.035156 181.101562 98.777344 183.40625 101.082031 L 237.101562 154.773438 C 239.410156 157.082031 243.152344 157.082031 245.460938 154.773438 " fill-opacity="1" fill-rule="nonzero"/><path fill="#ffffff" d="M 239.703125 132.136719 C 242.894531 135.328125 248.074219 135.328125 251.261719 132.136719 C 254.464844 128.949219 254.464844 123.757812 251.261719 120.566406 C 248.074219 117.378906 242.894531 117.378906 239.703125 120.566406 C 236.5 123.757812 236.5 128.949219 239.703125 132.136719 " fill-opacity="1" fill-rule="nonzero"/><path fill="#fcd490" d="M 91.304688 206.75 L 118.4375 179.621094 " fill-opacity="1" fill-rule="nonzero"/><path fill="#efb585" d="M 91.304688 206.75 C 93.121094 204.050781 95.148438 201.546875 97.257812 199.128906 C 99.355469 196.710938 101.539062 194.367188 103.796875 192.109375 C 106.054688 189.839844 108.398438 187.667969 110.816406 185.558594 C 113.234375 183.460938 115.738281 181.425781 118.4375 179.621094 C 116.632812 182.332031 114.609375 184.824219 112.496094 187.238281 C 110.398438 189.65625 108.214844 192 105.957031 194.257812 C 103.699219 196.527344 101.355469 198.699219 98.925781 200.808594 C 96.507812 202.90625 94.019531 204.933594 91.304688 206.75 " fill-opacity="1" fill-rule="nonzero"/><path fill="#fcd490" d="M 109.652344 228.746094 L 136.78125 201.621094 " fill-opacity="1" fill-rule="nonzero"/><path fill="#efb585" d="M 109.652344 228.746094 C 111.453125 226.046875 113.492188 223.546875 115.589844 221.128906 C 117.699219 218.710938 119.871094 216.367188 122.128906 214.109375 C 124.386719 211.839844 126.730469 209.667969 129.160156 207.558594 C 131.578125 205.460938 134.070312 203.4375 136.78125 201.621094 C 134.964844 204.332031 132.941406 206.820312 130.839844 209.238281 C 128.730469 211.65625 126.558594 214 124.289062 216.257812 C 122.03125 218.527344 119.6875 220.699219 117.257812 222.808594 C 114.851562 224.90625 112.351562 226.933594 109.652344 228.746094 " fill-opacity="1" fill-rule="nonzero"/><path fill="#fcd490" d="M 132.375 247.089844 L 159.515625 219.949219 " fill-opacity="1" fill-rule="nonzero"/><path fill="#efb585" d="M 132.375 247.089844 C 134.191406 244.378906 136.226562 241.886719 138.328125 239.457031 C 140.425781 237.042969 142.609375 234.699219 144.867188 232.441406 C 147.125 230.171875 149.46875 228 151.886719 225.890625 C 154.316406 223.789062 156.804688 221.765625 159.515625 219.949219 C 157.703125 222.660156 155.675781 225.152344 153.566406 227.570312 C 151.46875 230 149.296875 232.34375 147.027344 234.601562 C 144.769531 236.859375 142.414062 239.03125 140.007812 241.140625 C 137.578125 243.238281 135.085938 245.261719 132.375 247.089844 " fill-opacity="1" fill-rule="nonzero"/><path fill="#fcd490" d="M 228.390625 205.277344 L 229.054688 204.601562 C 234.441406 199.226562 234.441406 190.417969 229.054688 185.03125 L 214.648438 170.628906 L 204.464844 160.441406 C 194.621094 150.601562 187.371094 140.664062 175.921875 132.8125 C 168.757812 127.90625 163.089844 121.121094 156.425781 115.550781 C 144.695312 105.746094 137.6875 104.175781 122.9375 105.453125 C 115.378906 106.101562 101.476562 90.164062 95.207031 96.445312 L 51.207031 140.445312 C 44.261719 147.386719 68.472656 152.75 70.570312 167.472656 L 70.628906 167.878906 C 72.863281 183.546875 80.140625 198.074219 91.332031 209.261719 L 144.914062 262.84375 C 150.300781 268.230469 159.113281 268.230469 164.5 262.84375 L 165.160156 262.183594 C 170.082031 257.261719 170.488281 249.496094 166.425781 244.085938 L 166.535156 243.972656 L 168.316406 245.765625 C 173.703125 251.140625 182.511719 251.140625 187.898438 245.765625 L 188.5625 245.089844 C 193.949219 239.703125 193.949219 230.894531 188.5625 225.519531 C 193.949219 230.894531 202.757812 230.894531 208.144531 225.519531 L 208.808594 224.847656 C 214.195312 219.472656 214.195312 210.664062 208.808594 205.277344 C 214.195312 210.664062 223.003906 210.664062 228.390625 205.277344 " fill-opacity="1" fill-rule="nonzero"/><g clip-path="url(#1c396cba6c)"><path fill="#ec104d" d="M 54.742188 153.746094 L 28.371094 127.390625 C 26.066406 125.082031 26.066406 121.339844 28.371094 119.046875 L 82.078125 65.34375 C 84.386719 63.035156 88.117188 63.035156 90.421875 65.34375 L 116.78125 91.699219 C 119.085938 94.003906 119.085938 97.734375 116.78125 100.039062 L 63.085938 153.746094 C 60.777344 156.050781 57.035156 156.050781 54.742188 153.746094 " fill-opacity="1" fill-rule="nonzero"/></g><path fill="#ffffff" d="M 60.484375 131.09375 C 57.292969 134.296875 52.113281 134.296875 48.914062 131.09375 C 45.722656 127.90625 45.722656 122.726562 48.914062 119.523438 C 52.113281 116.335938 57.292969 116.335938 60.484375 119.523438 C 63.6875 122.726562 63.6875 127.90625 60.484375 131.09375 " fill-opacity="1" fill-rule="nonzero"/><path fill="#fcd490" d="M 208.882812 205.71875 L 181.738281 178.578125 " fill-opacity="1" fill-rule="nonzero"/><path fill="#efb585" d="M 208.882812 205.71875 C 206.167969 203.902344 203.679688 201.863281 201.261719 199.765625 C 198.832031 197.667969 196.488281 195.484375 194.230469 193.226562 C 191.972656 190.96875 189.789062 188.625 187.691406 186.210938 C 185.578125 183.792969 183.554688 181.289062 181.738281 178.578125 C 184.449219 180.394531 186.953125 182.417969 189.371094 184.527344 C 191.789062 186.625 194.132812 188.808594 196.390625 191.066406 C 198.648438 193.324219 200.832031 195.667969 202.929688 198.097656 C 205.039062 200.515625 207.066406 203.007812 208.882812 205.71875 " fill-opacity="1" fill-rule="nonzero"/><path fill="#fcd490" d="M 190.550781 227.71875 L 163.40625 200.578125 " fill-opacity="1" fill-rule="nonzero"/><path fill="#efb585" d="M 190.550781 227.71875 C 187.835938 225.902344 185.347656 223.863281 182.929688 221.765625 C 180.5 219.667969 178.15625 217.484375 175.898438 215.226562 C 173.640625 212.96875 171.457031 210.625 169.359375 208.207031 C 167.246094 205.777344 165.222656 203.289062 163.40625 200.578125 C 166.117188 202.394531 168.621094 204.417969 171.027344 206.527344 C 173.457031 208.625 175.800781 210.796875 178.058594 213.066406 C 180.316406 215.324219 182.5 217.679688 184.597656 220.097656 C 186.695312 222.515625 188.734375 225.003906 190.550781 227.71875 " fill-opacity="1" fill-rule="nonzero"/><path fill="#fcd490" d="M 167.8125 246.046875 L 140.683594 218.90625 " fill-opacity="1" fill-rule="nonzero"/><path fill="#efb585" d="M 167.8125 246.046875 C 165.101562 244.230469 162.609375 242.207031 160.191406 240.097656 C 157.773438 238 155.429688 235.828125 153.160156 233.558594 C 150.902344 231.300781 148.71875 228.957031 146.621094 226.539062 C 144.511719 224.121094 142.484375 221.617188 140.683594 218.90625 C 143.382812 220.722656 145.871094 222.746094 148.300781 224.859375 C 150.71875 226.957031 153.0625 229.140625 155.320312 231.398438 C 157.578125 233.65625 159.761719 236.011719 161.859375 238.429688 C 163.972656 240.84375 165.996094 243.335938 167.8125 246.046875 " fill-opacity="1" fill-rule="nonzero"/><path fill="#f9b574" d="M 196.953125 127.976562 C 193.605469 128.457031 196.867188 145.644531 180.351562 153.902344 C 167.910156 160.125 155.921875 160.257812 143.492188 161.351562 C 131.40625 162.417969 121.125 168.492188 110.398438 173.570312 C 101.859375 177.621094 85.402344 184.46875 82.558594 169.472656 C 80.914062 160.761719 146.363281 110.972656 150.804688 109.710938 C 166.816406 105.144531 163.8125 105.574219 185.933594 102.824219 " fill-opacity="1" fill-rule="nonzero"/><g clip-path="url(#b437fd9658)"><path fill="#56a9dd" d="M 110.550781 52.472656 C 110.554688 52.613281 110.558594 52.753906 110.566406 52.894531 C 110.566406 52.980469 110.574219 53.066406 110.578125 53.152344 C 110.585938 53.277344 110.589844 53.402344 110.597656 53.523438 C 110.605469 53.617188 110.613281 53.710938 110.621094 53.800781 C 110.628906 53.917969 110.636719 54.035156 110.644531 54.152344 C 110.652344 54.246094 110.664062 54.339844 110.671875 54.4375 C 110.683594 54.550781 110.695312 54.660156 110.707031 54.773438 C 110.71875 54.871094 110.730469 54.96875 110.742188 55.066406 C 110.753906 55.171875 110.765625 55.28125 110.78125 55.390625 C 110.792969 55.488281 110.808594 55.589844 110.820312 55.6875 C 110.835938 55.792969 110.851562 55.898438 110.867188 56 C 110.878906 56.101562 110.898438 56.203125 110.914062 56.304688 C 110.929688 56.40625 110.945312 56.507812 110.964844 56.609375 C 110.980469 56.710938 111 56.8125 111.019531 56.914062 C 111.035156 57.015625 111.054688 57.113281 111.074219 57.210938 C 111.09375 57.316406 111.113281 57.417969 111.136719 57.523438 C 111.15625 57.617188 111.175781 57.714844 111.195312 57.8125 C 111.21875 57.914062 111.242188 58.019531 111.265625 58.121094 C 111.285156 58.21875 111.308594 58.3125 111.328125 58.40625 C 111.355469 58.511719 111.378906 58.613281 111.40625 58.71875 C 111.429688 58.8125 111.449219 58.902344 111.472656 58.996094 C 111.5 59.101562 111.527344 59.207031 111.558594 59.3125 C 111.582031 59.402344 111.605469 59.488281 111.628906 59.578125 C 111.660156 59.6875 111.691406 59.792969 111.722656 59.898438 C 111.746094 59.984375 111.769531 60.070312 111.796875 60.15625 C 111.828125 60.265625 111.863281 60.375 111.894531 60.480469 C 111.921875 60.566406 111.949219 60.648438 111.972656 60.730469 C 112.007812 60.839844 112.042969 60.949219 112.082031 61.058594 C 112.109375 61.140625 112.136719 61.21875 112.160156 61.300781 C 112.199219 61.410156 112.238281 61.523438 112.277344 61.632812 C 112.304688 61.710938 112.332031 61.785156 112.359375 61.863281 C 112.398438 61.976562 112.441406 62.089844 112.484375 62.203125 C 112.511719 62.273438 112.539062 62.347656 112.566406 62.421875 C 112.609375 62.535156 112.65625 62.652344 112.699219 62.765625 C 112.726562 62.835938 112.753906 62.902344 112.78125 62.972656 C 112.828125 63.089844 112.878906 63.207031 112.925781 63.328125 C 112.953125 63.390625 112.980469 63.453125 113.003906 63.515625 C 113.058594 63.636719 113.109375 63.761719 113.164062 63.882812 C 113.1875 63.9375 113.210938 63.992188 113.238281 64.046875 C 113.292969 64.175781 113.351562 64.304688 113.410156 64.433594 C 113.429688 64.480469 113.453125 64.527344 113.472656 64.574219 C 113.535156 64.707031 113.597656 64.84375 113.664062 64.980469 C 113.679688 65.015625 113.695312 65.046875 113.714844 65.082031 C 113.785156 65.230469 113.855469 65.375 113.925781 65.519531 C 113.9375 65.535156 113.945312 65.554688 113.953125 65.570312 C 114.648438 66.964844 115.433594 68.3125 116.292969 69.613281 C 116.460938 69.863281 116.628906 70.113281 116.796875 70.359375 C 116.816406 70.386719 116.835938 70.410156 116.851562 70.4375 C 117.019531 70.679688 117.1875 70.917969 117.359375 71.15625 C 117.359375 71.160156 117.363281 71.160156 117.363281 71.160156 C 117.53125 71.394531 117.703125 71.625 117.875 71.855469 C 117.910156 71.898438 117.941406 71.941406 117.972656 71.988281 C 118.140625 72.207031 118.3125 72.429688 118.484375 72.648438 C 118.484375 72.652344 118.488281 72.65625 118.492188 72.660156 C 118.492188 72.660156 118.492188 72.660156 118.496094 72.660156 C 120.613281 75.359375 123.019531 77.832031 125.535156 80.074219 C 125.78125 80.292969 126.023438 80.503906 126.269531 80.71875 C 126.277344 80.726562 126.289062 80.734375 126.300781 80.746094 C 127.042969 81.386719 127.796875 82.011719 128.550781 82.613281 C 128.550781 82.613281 128.554688 82.617188 128.554688 82.617188 C 131.089844 84.640625 133.660156 86.433594 136.101562 87.984375 C 136.105469 87.988281 136.109375 87.992188 136.113281 87.996094 C 136.402344 88.179688 136.683594 88.355469 136.96875 88.53125 C 136.976562 88.539062 136.988281 88.542969 136.996094 88.550781 C 137.277344 88.722656 137.550781 88.894531 137.828125 89.058594 C 137.839844 89.066406 137.851562 89.074219 137.863281 89.082031 C 138.136719 89.25 138.40625 89.410156 138.671875 89.570312 C 138.6875 89.578125 138.699219 89.585938 138.714844 89.59375 C 138.980469 89.753906 139.246094 89.90625 139.503906 90.058594 C 139.519531 90.066406 139.535156 90.074219 139.546875 90.082031 C 139.808594 90.234375 140.066406 90.382812 140.324219 90.53125 C 140.335938 90.535156 140.347656 90.542969 140.359375 90.550781 C 140.617188 90.699219 140.875 90.839844 141.125 90.980469 C 141.132812 90.984375 141.140625 90.992188 141.148438 90.996094 C 141.40625 91.136719 141.65625 91.277344 141.90625 91.414062 C 141.90625 91.414062 141.910156 91.414062 141.914062 91.414062 C 141.914062 91.417969 141.914062 91.417969 141.914062 91.417969 C 142.136719 91.539062 142.351562 91.65625 142.566406 91.769531 C 142.585938 91.78125 142.605469 91.792969 142.628906 91.800781 C 142.832031 91.910156 143.03125 92.019531 143.230469 92.121094 C 143.257812 92.136719 143.285156 92.152344 143.3125 92.167969 C 143.503906 92.265625 143.691406 92.367188 143.878906 92.460938 C 143.910156 92.476562 143.941406 92.492188 143.972656 92.511719 C 144.152344 92.605469 144.332031 92.695312 144.503906 92.785156 C 144.539062 92.800781 144.570312 92.816406 144.605469 92.835938 C 144.777344 92.921875 144.949219 93.007812 145.113281 93.089844 C 145.140625 93.105469 145.167969 93.117188 145.195312 93.132812 C 145.359375 93.214844 145.523438 93.296875 145.683594 93.375 C 145.707031 93.386719 145.730469 93.394531 145.753906 93.40625 C 145.902344 93.480469 146.046875 93.550781 146.191406 93.621094 C 146.214844 93.632812 146.242188 93.648438 146.269531 93.660156 C 146.410156 93.726562 146.550781 93.792969 146.6875 93.859375 C 146.722656 93.875 146.757812 93.894531 146.792969 93.910156 C 146.921875 93.972656 147.046875 94.03125 147.167969 94.085938 C 147.203125 94.105469 147.242188 94.121094 147.277344 94.140625 C 147.394531 94.195312 147.507812 94.246094 147.617188 94.296875 C 147.65625 94.316406 147.691406 94.332031 147.726562 94.347656 C 147.832031 94.398438 147.933594 94.445312 148.03125 94.488281 C 148.070312 94.503906 148.105469 94.523438 148.140625 94.539062 C 148.234375 94.582031 148.324219 94.621094 148.410156 94.660156 C 148.445312 94.675781 148.476562 94.6875 148.507812 94.703125 C 148.582031 94.734375 148.652344 94.765625 148.71875 94.796875 C 148.757812 94.8125 148.796875 94.832031 148.832031 94.847656 C 148.894531 94.875 148.957031 94.902344 149.011719 94.925781 C 149.042969 94.9375 149.070312 94.953125 149.097656 94.964844 C 149.160156 94.988281 149.214844 95.015625 149.269531 95.039062 C 149.296875 95.050781 149.324219 95.0625 149.347656 95.070312 C 149.398438 95.09375 149.445312 95.113281 149.492188 95.132812 C 149.5 95.136719 149.515625 95.144531 149.527344 95.148438 C 149.777344 95.253906 149.910156 95.308594 149.910156 95.308594 C 149.910156 95.308594 150.089844 95.238281 150.417969 95.105469 C 150.585938 95.035156 150.792969 94.949219 151.03125 94.847656 C 151.042969 94.84375 151.050781 94.839844 151.0625 94.835938 C 151.109375 94.816406 151.160156 94.792969 151.214844 94.769531 C 151.222656 94.765625 151.234375 94.761719 151.242188 94.757812 C 151.402344 94.691406 151.574219 94.617188 151.757812 94.535156 C 151.78125 94.523438 151.808594 94.515625 151.832031 94.503906 C 151.878906 94.480469 151.929688 94.460938 151.980469 94.4375 C 152.011719 94.421875 152.046875 94.40625 152.082031 94.390625 C 152.132812 94.371094 152.183594 94.347656 152.234375 94.324219 C 152.269531 94.308594 152.304688 94.292969 152.339844 94.277344 C 152.421875 94.242188 152.503906 94.203125 152.589844 94.164062 C 152.644531 94.140625 152.699219 94.117188 152.753906 94.089844 C 152.800781 94.070312 152.847656 94.046875 152.898438 94.023438 C 152.945312 94.003906 152.996094 93.980469 153.046875 93.957031 C 153.097656 93.933594 153.148438 93.910156 153.203125 93.886719 C 153.253906 93.863281 153.304688 93.835938 153.359375 93.8125 C 153.410156 93.789062 153.460938 93.765625 153.511719 93.742188 C 153.578125 93.710938 153.644531 93.679688 153.714844 93.648438 C 153.769531 93.621094 153.824219 93.59375 153.878906 93.570312 C 153.96875 93.527344 154.058594 93.484375 154.152344 93.441406 C 154.195312 93.417969 154.242188 93.394531 154.289062 93.375 C 154.359375 93.339844 154.433594 93.304688 154.503906 93.269531 C 154.554688 93.246094 154.601562 93.222656 154.652344 93.199219 C 154.726562 93.164062 154.800781 93.128906 154.878906 93.089844 C 154.925781 93.066406 154.972656 93.042969 155.019531 93.019531 C 155.125 92.96875 155.226562 92.917969 155.335938 92.867188 C 155.367188 92.851562 155.398438 92.832031 155.433594 92.816406 C 155.542969 92.761719 155.65625 92.707031 155.769531 92.652344 C 155.8125 92.628906 155.855469 92.605469 155.902344 92.585938 C 155.988281 92.539062 156.078125 92.496094 156.167969 92.449219 C 156.214844 92.425781 156.265625 92.398438 156.316406 92.375 C 156.410156 92.328125 156.503906 92.277344 156.597656 92.230469 C 156.640625 92.207031 156.683594 92.1875 156.722656 92.167969 C 156.863281 92.09375 157.003906 92.023438 157.144531 91.949219 C 157.152344 91.945312 157.160156 91.941406 157.164062 91.9375 C 157.296875 91.867188 157.433594 91.796875 157.566406 91.726562 C 157.613281 91.703125 157.65625 91.679688 157.703125 91.65625 C 157.808594 91.601562 157.910156 91.546875 158.015625 91.488281 C 158.0625 91.464844 158.109375 91.441406 158.152344 91.417969 C 158.269531 91.355469 158.386719 91.292969 158.503906 91.226562 C 158.539062 91.210938 158.570312 91.191406 158.605469 91.175781 C 158.757812 91.089844 158.914062 91.007812 159.070312 90.921875 C 159.082031 90.914062 159.097656 90.90625 159.109375 90.898438 C 159.25 90.820312 159.390625 90.742188 159.535156 90.664062 C 159.574219 90.640625 159.613281 90.617188 159.65625 90.59375 C 159.777344 90.527344 159.898438 90.460938 160.019531 90.390625 C 160.0625 90.367188 160.101562 90.34375 160.144531 90.320312 C 160.285156 90.242188 160.425781 90.164062 160.566406 90.082031 C 160.585938 90.070312 160.605469 90.058594 160.625 90.046875 C 160.792969 89.953125 160.960938 89.855469 161.128906 89.757812 C 161.148438 89.746094 161.164062 89.738281 161.179688 89.726562 C 161.328125 89.640625 161.476562 89.554688 161.625 89.46875 C 161.664062 89.445312 161.707031 89.421875 161.746094 89.394531 C 161.878906 89.320312 162.007812 89.238281 162.144531 89.160156 C 162.183594 89.136719 162.222656 89.113281 162.257812 89.089844 C 162.421875 88.992188 162.585938 88.894531 162.75 88.796875 C 162.753906 88.792969 162.757812 88.789062 162.761719 88.789062 C 167.070312 86.167969 171.878906 82.769531 176.203125 78.613281 C 176.203125 78.613281 176.203125 78.613281 176.207031 78.613281 C 176.207031 78.613281 176.207031 78.613281 176.210938 78.609375 C 177.203125 77.65625 178.167969 76.664062 179.097656 75.632812 C 179.101562 75.625 179.109375 75.621094 179.113281 75.613281 C 179.421875 75.273438 179.722656 74.929688 180.019531 74.582031 C 180.023438 74.574219 180.027344 74.570312 180.03125 74.566406 C 180.632812 73.859375 181.21875 73.132812 181.78125 72.390625 C 182.058594 72.023438 182.332031 71.652344 182.597656 71.277344 C 182.605469 71.265625 182.613281 71.257812 182.621094 71.246094 C 183.117188 70.546875 183.589844 69.835938 184.042969 69.109375 C 184.046875 69.105469 184.050781 69.097656 184.054688 69.09375 C 184.257812 68.761719 184.460938 68.429688 184.65625 68.09375 C 184.660156 68.082031 184.667969 68.074219 184.671875 68.066406 C 184.867188 67.730469 185.054688 67.390625 185.238281 67.050781 C 185.246094 67.039062 185.25 67.03125 185.257812 67.019531 C 185.441406 66.679688 185.621094 66.335938 185.792969 65.988281 C 185.796875 65.976562 185.804688 65.96875 185.808594 65.957031 C 185.984375 65.609375 186.152344 65.257812 186.3125 64.902344 C 186.316406 64.894531 186.320312 64.886719 186.324219 64.878906 C 186.488281 64.519531 186.644531 64.160156 186.796875 63.800781 C 186.800781 63.792969 186.804688 63.789062 186.804688 63.78125 C 186.957031 63.414062 187.105469 63.046875 187.242188 62.675781 C 187.246094 62.671875 187.246094 62.671875 187.246094 62.667969 C 187.472656 62.066406 187.683594 61.460938 187.875 60.84375 C 187.878906 60.824219 187.886719 60.804688 187.890625 60.785156 C 187.960938 60.566406 188.027344 60.34375 188.089844 60.125 C 188.09375 60.105469 188.097656 60.085938 188.105469 60.070312 C 188.242188 59.589844 188.367188 59.105469 188.480469 58.613281 C 188.484375 58.605469 188.484375 58.601562 188.484375 58.59375 C 188.535156 58.382812 188.582031 58.167969 188.625 57.953125 C 188.632812 57.933594 188.636719 57.910156 188.640625 57.890625 C 188.683594 57.683594 188.722656 57.476562 188.761719 57.269531 C 188.765625 57.253906 188.765625 57.242188 188.769531 57.226562 C 188.808594 57.007812 188.847656 56.792969 188.882812 56.574219 C 188.882812 56.566406 188.886719 56.5625 188.886719 56.558594 C 188.921875 56.332031 188.957031 56.105469 188.988281 55.878906 C 188.988281 55.875 188.988281 55.875 188.988281 55.871094 C 188.988281 55.871094 188.988281 55.871094 188.988281 55.867188 C 189.132812 54.855469 189.222656 53.820312 189.261719 52.769531 C 189.265625 52.738281 189.265625 52.707031 189.265625 52.671875 C 189.277344 52.324219 189.285156 51.972656 189.285156 51.621094 C 189.285156 51.40625 189.28125 51.191406 189.273438 50.980469 C 189.273438 50.914062 189.269531 50.851562 189.265625 50.789062 C 189.261719 50.632812 189.253906 50.476562 189.242188 50.320312 C 189.238281 50.257812 189.234375 50.195312 189.230469 50.132812 C 189.21875 49.933594 189.203125 49.734375 189.183594 49.539062 C 189.179688 49.527344 189.179688 49.515625 189.179688 49.5 C 189.15625 49.292969 189.132812 49.082031 189.105469 48.875 C 189.097656 48.816406 189.089844 48.761719 189.082031 48.703125 C 189.058594 48.546875 189.035156 48.390625 189.011719 48.238281 C 189 48.175781 188.992188 48.117188 188.980469 48.058594 C 188.949219 47.871094 188.914062 47.683594 188.878906 47.5 C 188.875 47.480469 188.871094 47.464844 188.867188 47.445312 C 188.824219 47.242188 188.78125 47.039062 188.734375 46.835938 C 188.71875 46.785156 188.707031 46.734375 188.695312 46.683594 C 188.65625 46.527344 188.617188 46.375 188.578125 46.21875 C 188.5625 46.164062 188.546875 46.109375 188.53125 46.054688 C 188.484375 45.875 188.429688 45.695312 188.375 45.515625 C 188.371094 45.5 188.367188 45.480469 188.359375 45.464844 C 188.300781 45.261719 188.234375 45.0625 188.167969 44.867188 C 188.152344 44.828125 188.140625 44.789062 188.125 44.75 C 188.070312 44.589844 188.011719 44.429688 187.953125 44.273438 C 187.933594 44.226562 187.917969 44.179688 187.898438 44.132812 C 187.832031 43.957031 187.761719 43.777344 187.6875 43.605469 C 187.683594 43.589844 187.675781 43.578125 187.671875 43.566406 C 187.589844 43.367188 187.503906 43.175781 187.414062 42.980469 C 187.402344 42.957031 187.390625 42.929688 187.378906 42.902344 C 187.304688 42.738281 187.226562 42.578125 187.148438 42.414062 C 187.128906 42.378906 187.109375 42.339844 187.089844 42.304688 C 187.003906 42.128906 186.914062 41.953125 186.820312 41.78125 C 186.816406 41.773438 186.8125 41.765625 186.808594 41.757812 C 186.707031 41.566406 186.601562 41.378906 186.492188 41.191406 C 186.484375 41.179688 186.480469 41.167969 186.472656 41.15625 C 186.375 40.988281 186.273438 40.820312 186.171875 40.65625 C 186.152344 40.628906 186.136719 40.601562 186.117188 40.574219 C 186.011719 40.402344 185.902344 40.230469 185.789062 40.0625 C 185.785156 40.058594 185.785156 40.058594 185.785156 40.054688 C 185.542969 39.695312 185.292969 39.347656 185.035156 39.007812 C 185.019531 38.988281 185.003906 38.96875 184.992188 38.949219 C 184.601562 38.441406 184.1875 37.949219 183.75 37.480469 C 183.742188 37.46875 183.730469 37.457031 183.71875 37.445312 C 183.277344 36.96875 182.816406 36.515625 182.332031 36.082031 C 182.324219 36.078125 182.320312 36.074219 182.3125 36.066406 C 181.824219 35.632812 181.3125 35.21875 180.785156 34.832031 C 180.785156 34.828125 180.78125 34.828125 180.777344 34.824219 C 179.972656 34.234375 179.125 33.699219 178.238281 33.226562 C 178.234375 33.226562 178.230469 33.226562 178.230469 33.222656 C 177.929688 33.0625 177.625 32.914062 177.316406 32.765625 C 177.3125 32.765625 177.3125 32.765625 177.308594 32.765625 C 177 32.617188 176.6875 32.480469 176.367188 32.351562 C 173.945312 31.359375 171.292969 30.8125 168.515625 30.8125 C 164.867188 30.8125 161.445312 31.753906 158.464844 33.40625 C 158.464844 33.40625 158.460938 33.410156 158.460938 33.410156 C 157.796875 33.777344 157.15625 34.183594 156.539062 34.621094 C 156.523438 34.632812 156.507812 34.644531 156.488281 34.65625 C 156.34375 34.757812 156.199219 34.863281 156.058594 34.96875 C 156.046875 34.980469 156.035156 34.988281 156.023438 35 C 155.425781 35.449219 154.855469 35.929688 154.3125 36.441406 C 154.296875 36.453125 154.285156 36.464844 154.273438 36.476562 C 154.144531 36.597656 154.019531 36.71875 153.894531 36.84375 C 153.878906 36.859375 153.863281 36.878906 153.847656 36.894531 C 153.316406 37.421875 152.816406 37.980469 152.347656 38.5625 C 152.339844 38.570312 152.335938 38.574219 152.332031 38.582031 C 152.21875 38.71875 152.109375 38.859375 152.003906 39 C 151.988281 39.019531 151.972656 39.042969 151.957031 39.0625 C 151.847656 39.203125 151.742188 39.347656 151.640625 39.492188 C 151.640625 39.492188 151.636719 39.492188 151.636719 39.492188 C 150.988281 40.398438 150.410156 41.355469 149.910156 42.359375 C 148.886719 40.300781 147.53125 38.433594 145.917969 36.832031 C 145.914062 36.832031 145.914062 36.828125 145.910156 36.828125 C 145.140625 36.066406 144.316406 35.363281 143.4375 34.726562 C 143.4375 34.726562 143.433594 34.726562 143.433594 34.726562 C 143.230469 34.578125 143.019531 34.433594 142.808594 34.292969 C 142.789062 34.277344 142.765625 34.265625 142.746094 34.25 C 142.554688 34.125 142.359375 34 142.164062 33.878906 C 142.132812 33.859375 142.097656 33.839844 142.066406 33.820312 C 141.878906 33.707031 141.6875 33.59375 141.496094 33.488281 C 141.460938 33.464844 141.421875 33.445312 141.386719 33.425781 C 141.195312 33.316406 141.003906 33.214844 140.808594 33.113281 C 140.773438 33.09375 140.734375 33.074219 140.699219 33.058594 C 140.496094 32.953125 140.289062 32.851562 140.082031 32.757812 C 140.054688 32.746094 140.027344 32.730469 140.003906 32.71875 C 139.289062 32.386719 138.554688 32.097656 137.800781 31.847656 C 137.777344 31.839844 137.753906 31.835938 137.734375 31.828125 C 137.511719 31.753906 137.289062 31.6875 137.066406 31.621094 C 137 31.605469 136.933594 31.585938 136.867188 31.566406 C 136.6875 31.519531 136.503906 31.46875 136.320312 31.421875 C 136.238281 31.402344 136.152344 31.382812 136.070312 31.363281 C 135.902344 31.324219 135.734375 31.285156 135.566406 31.25 C 135.472656 31.230469 135.375 31.210938 135.28125 31.195312 C 135.121094 31.164062 134.960938 31.132812 134.796875 31.105469 C 134.695312 31.089844 134.597656 31.070312 134.496094 31.058594 C 134.335938 31.03125 134.175781 31.007812 134.015625 30.988281 C 133.910156 30.976562 133.808594 30.960938 133.707031 30.949219 C 133.542969 30.929688 133.378906 30.914062 133.210938 30.898438 C 133.113281 30.890625 133.011719 30.882812 132.914062 30.871094 C 132.734375 30.859375 132.550781 30.851562 132.371094 30.839844 C 132.285156 30.835938 132.199219 30.828125 132.113281 30.828125 C 131.847656 30.816406 131.578125 30.8125 131.308594 30.8125 C 131.085938 30.8125 130.863281 30.816406 130.640625 30.824219 C 130.589844 30.824219 130.535156 30.824219 130.484375 30.828125 C 130.289062 30.835938 130.097656 30.847656 129.90625 30.859375 C 129.878906 30.859375 129.851562 30.863281 129.824219 30.863281 C 129.355469 30.898438 128.890625 30.945312 128.433594 31.007812 C 128.429688 31.011719 128.425781 31.011719 128.421875 31.011719 C 125.835938 31.371094 123.40625 32.207031 121.214844 33.429688 C 121.210938 33.429688 121.210938 33.433594 121.207031 33.433594 C 120.597656 33.773438 120.007812 34.144531 119.441406 34.539062 C 119.433594 34.546875 119.429688 34.546875 119.421875 34.550781 C 119.046875 34.816406 118.683594 35.089844 118.328125 35.375 C 118.316406 35.382812 118.304688 35.394531 118.292969 35.402344 C 117.9375 35.6875 117.589844 35.988281 117.257812 36.296875 C 117.253906 36.300781 117.25 36.300781 117.246094 36.304688 C 117.085938 36.453125 116.925781 36.605469 116.769531 36.757812 C 116.757812 36.769531 116.746094 36.78125 116.734375 36.792969 C 116.414062 37.109375 116.105469 37.433594 115.804688 37.769531 C 115.792969 37.785156 115.777344 37.804688 115.761719 37.820312 C 115.441406 38.183594 115.128906 38.558594 114.832031 38.945312 C 114.820312 38.960938 114.8125 38.976562 114.800781 38.992188 C 114.308594 39.632812 113.855469 40.304688 113.441406 41.003906 C 113.429688 41.019531 113.421875 41.035156 113.414062 41.046875 C 113.136719 41.515625 112.878906 41.996094 112.640625 42.488281 C 112.640625 42.488281 112.640625 42.488281 112.636719 42.492188 C 112.519531 42.734375 112.402344 42.980469 112.292969 43.230469 C 112.289062 43.242188 112.285156 43.253906 112.28125 43.265625 C 112.058594 43.769531 111.855469 44.285156 111.675781 44.808594 C 111.675781 44.808594 111.675781 44.8125 111.675781 44.8125 C 111.585938 45.074219 111.5 45.339844 111.417969 45.605469 C 111.417969 45.613281 111.414062 45.617188 111.414062 45.625 C 111.253906 46.160156 111.113281 46.707031 110.996094 47.261719 C 110.996094 47.261719 110.992188 47.261719 110.992188 47.265625 C 110.933594 47.542969 110.882812 47.824219 110.832031 48.105469 C 110.832031 48.105469 110.832031 48.109375 110.832031 48.109375 C 110.738281 48.671875 110.664062 49.242188 110.613281 49.820312 C 110.613281 49.824219 110.613281 49.828125 110.613281 49.832031 C 110.5625 50.421875 110.535156 51.019531 110.535156 51.621094 C 110.535156 51.832031 110.539062 52.046875 110.542969 52.257812 C 110.546875 52.332031 110.546875 52.402344 110.550781 52.472656 " fill-opacity="1" fill-rule="nonzero"/></g><path fill="#52a5d7" d="M 118.644531 72.003906 C 118.589844 72.222656 118.539062 72.445312 118.488281 72.664062 C 118.488281 72.667969 118.492188 72.667969 118.492188 72.667969 C 119.023438 73.347656 119.578125 74.011719 120.144531 74.664062 C 119.609375 73.800781 119.105469 72.914062 118.644531 72.003906 " fill-opacity="1" fill-rule="nonzero"/><g clip-path="url(#2bb7b80e23)"><path fill="#52a5d7" d="M 116.972656 68.160156 C 115.921875 65.28125 115.242188 62.226562 114.976562 59.050781 C 114.550781 59.128906 114.066406 58.785156 113.792969 58.40625 C 112.984375 57.289062 112.855469 55.871094 112.59375 54.511719 L 112.570312 54.457031 C 111.96875 53.554688 111.488281 52.71875 111.394531 51.691406 C 111.394531 51.664062 111.382812 51.632812 111.363281 51.613281 C 111.101562 51.304688 110.816406 51.015625 110.554688 50.710938 C 110.542969 51.015625 110.535156 51.320312 110.535156 51.625 C 110.535156 51.839844 110.535156 52.054688 110.539062 52.265625 C 110.542969 52.335938 110.546875 52.410156 110.546875 52.480469 C 110.550781 52.621094 110.554688 52.761719 110.5625 52.902344 C 110.566406 52.988281 110.570312 53.074219 110.574219 53.160156 C 110.582031 53.285156 110.585938 53.40625 110.597656 53.53125 C 110.601562 53.625 110.609375 53.714844 110.617188 53.808594 C 110.625 53.925781 110.632812 54.042969 110.644531 54.15625 C 110.652344 54.253906 110.660156 54.347656 110.671875 54.445312 C 110.679688 54.554688 110.691406 54.667969 110.703125 54.777344 C 110.714844 54.878906 110.726562 54.976562 110.738281 55.074219 C 110.75 55.179688 110.761719 55.289062 110.777344 55.394531 C 110.789062 55.496094 110.804688 55.59375 110.816406 55.695312 C 110.832031 55.800781 110.847656 55.902344 110.863281 56.007812 C 110.878906 56.109375 110.894531 56.210938 110.910156 56.308594 C 110.925781 56.414062 110.941406 56.515625 110.960938 56.617188 C 110.976562 56.71875 110.996094 56.820312 111.015625 56.921875 C 111.035156 57.019531 111.050781 57.121094 111.070312 57.21875 C 111.089844 57.324219 111.113281 57.425781 111.132812 57.527344 C 111.152344 57.625 111.171875 57.722656 111.191406 57.816406 C 111.214844 57.921875 111.238281 58.027344 111.261719 58.128906 C 111.28125 58.222656 111.304688 58.316406 111.328125 58.414062 C 111.351562 58.515625 111.375 58.621094 111.402344 58.726562 C 111.425781 58.816406 111.449219 58.910156 111.472656 59 C 111.5 59.105469 111.527344 59.210938 111.554688 59.316406 C 111.578125 59.40625 111.601562 59.496094 111.628906 59.585938 C 111.65625 59.691406 111.6875 59.800781 111.71875 59.90625 C 111.742188 59.992188 111.769531 60.078125 111.792969 60.164062 C 111.828125 60.273438 111.859375 60.382812 111.894531 60.488281 C 111.917969 60.570312 111.945312 60.65625 111.972656 60.738281 C 112.007812 60.847656 112.042969 60.957031 112.078125 61.066406 C 112.105469 61.148438 112.132812 61.226562 112.160156 61.308594 C 112.195312 61.417969 112.234375 61.527344 112.273438 61.640625 C 112.300781 61.714844 112.328125 61.792969 112.355469 61.871094 C 112.398438 61.984375 112.4375 62.097656 112.480469 62.210938 C 112.507812 62.28125 112.535156 62.355469 112.5625 62.425781 C 112.605469 62.542969 112.652344 62.660156 112.695312 62.773438 C 112.722656 62.84375 112.75 62.910156 112.777344 62.976562 C 112.828125 63.097656 112.875 63.214844 112.925781 63.332031 C 112.949219 63.394531 112.976562 63.457031 113.003906 63.519531 C 113.054688 63.644531 113.105469 63.765625 113.160156 63.890625 C 113.183594 63.945312 113.210938 64 113.234375 64.054688 C 113.289062 64.183594 113.347656 64.3125 113.40625 64.441406 C 113.425781 64.488281 113.449219 64.535156 113.472656 64.578125 C 113.535156 64.714844 113.597656 64.851562 113.660156 64.984375 C 113.675781 65.019531 113.695312 65.054688 113.710938 65.089844 C 113.78125 65.234375 113.851562 65.382812 113.925781 65.527344 C 113.933594 65.542969 113.941406 65.558594 113.949219 65.578125 C 114.648438 66.96875 115.433594 68.316406 116.289062 69.621094 C 116.292969 69.621094 116.292969 69.621094 116.292969 69.621094 C 116.511719 69.128906 116.738281 68.644531 116.972656 68.160156 " fill-opacity="1" fill-rule="nonzero"/></g><path fill="#52a5d7" d="M 187.957031 59.292969 C 187.777344 59.492188 187.585938 59.683594 187.386719 59.855469 C 186.394531 60.722656 185.09375 61.574219 184.765625 62.761719 C 184.792969 62.847656 184.8125 62.9375 184.820312 63.035156 C 184.839844 63.289062 184.796875 63.535156 184.71875 63.757812 C 184.757812 64.070312 184.804688 64.382812 184.683594 64.664062 C 184.519531 65.046875 184.121094 65.222656 183.722656 65.402344 C 183.324219 66.871094 182.832031 68.296875 182.253906 69.679688 C 182.683594 70.027344 183.050781 70.304688 183.402344 70.113281 C 183.621094 69.78125 183.832031 69.453125 184.039062 69.117188 C 184.042969 69.109375 184.046875 69.105469 184.050781 69.101562 C 184.253906 68.769531 184.457031 68.4375 184.652344 68.097656 C 184.65625 68.089844 184.664062 68.082031 184.667969 68.070312 C 184.863281 67.738281 185.050781 67.398438 185.238281 67.058594 C 185.242188 67.046875 185.25 67.035156 185.253906 67.027344 C 185.4375 66.683594 185.617188 66.339844 185.789062 65.996094 C 185.796875 65.984375 185.800781 65.972656 185.804688 65.964844 C 185.980469 65.617188 186.148438 65.265625 186.308594 64.910156 C 186.316406 64.902344 186.320312 64.894531 186.324219 64.882812 C 186.484375 64.527344 186.644531 64.167969 186.796875 63.804688 C 186.796875 63.800781 186.800781 63.792969 186.800781 63.789062 C 186.953125 63.421875 187.101562 63.054688 187.242188 62.683594 C 187.242188 62.679688 187.242188 62.675781 187.246094 62.675781 C 187.386719 62.300781 187.519531 61.921875 187.648438 61.542969 C 187.769531 60.800781 187.875 60.050781 187.957031 59.292969 " fill-opacity="1" fill-rule="nonzero"/><path fill="#52a5d7" d="M 177.375 34.277344 C 177.441406 34.257812 177.511719 34.234375 177.578125 34.214844 C 178.09375 34.054688 178.609375 33.894531 179.125 33.734375 C 178.832031 33.5625 178.535156 33.394531 178.234375 33.234375 C 178.230469 33.234375 178.230469 33.230469 178.226562 33.230469 C 177.925781 33.070312 177.621094 32.917969 177.3125 32.773438 C 177.3125 32.773438 177.308594 32.773438 177.304688 32.769531 C 176.996094 32.625 176.683594 32.488281 176.367188 32.359375 C 176.367188 32.359375 176.363281 32.359375 176.363281 32.355469 C 176.042969 32.226562 175.722656 32.105469 175.394531 31.988281 C 176.085938 32.722656 176.746094 33.484375 177.375 34.277344 " fill-opacity="1" fill-rule="nonzero"/><g clip-path="url(#a1b854f83b)"><path fill="#52a5d7" d="M 142.46875 90.433594 C 142.277344 90.757812 142.089844 91.089844 141.910156 91.421875 C 141.910156 91.421875 141.910156 91.425781 141.914062 91.425781 C 142.132812 91.542969 142.351562 91.664062 142.566406 91.777344 C 142.585938 91.789062 142.605469 91.796875 142.625 91.808594 C 142.828125 91.917969 143.027344 92.023438 143.226562 92.128906 C 143.253906 92.144531 143.28125 92.160156 143.3125 92.171875 C 143.5 92.273438 143.691406 92.371094 143.875 92.46875 C 143.90625 92.484375 143.9375 92.5 143.96875 92.515625 C 144.148438 92.609375 144.328125 92.703125 144.5 92.789062 C 144.535156 92.808594 144.570312 92.824219 144.601562 92.839844 C 144.777344 92.929688 144.945312 93.015625 145.113281 93.097656 C 145.140625 93.113281 145.164062 93.125 145.191406 93.136719 C 145.359375 93.222656 145.519531 93.300781 145.679688 93.378906 C 145.703125 93.390625 145.726562 93.402344 145.75 93.414062 C 145.898438 93.488281 146.046875 93.558594 146.1875 93.628906 C 146.214844 93.640625 146.238281 93.652344 146.265625 93.664062 C 146.410156 93.734375 146.546875 93.800781 146.683594 93.867188 C 146.71875 93.882812 146.753906 93.902344 146.789062 93.917969 C 146.917969 93.980469 147.042969 94.039062 147.164062 94.09375 C 147.203125 94.113281 147.238281 94.128906 147.277344 94.148438 C 147.390625 94.203125 147.503906 94.253906 147.613281 94.304688 C 147.652344 94.320312 147.6875 94.339844 147.722656 94.355469 C 147.828125 94.402344 147.933594 94.449219 148.03125 94.496094 C 148.066406 94.511719 148.101562 94.527344 148.140625 94.546875 C 148.230469 94.585938 148.324219 94.628906 148.410156 94.667969 C 148.441406 94.683594 148.472656 94.695312 148.507812 94.710938 C 148.578125 94.742188 148.648438 94.773438 148.714844 94.804688 C 148.753906 94.820312 148.792969 94.835938 148.832031 94.855469 C 148.894531 94.882812 148.953125 94.90625 149.011719 94.933594 C 149.039062 94.945312 149.066406 94.957031 149.09375 94.96875 C 149.15625 94.996094 149.214844 95.019531 149.269531 95.042969 C 149.292969 95.054688 149.320312 95.066406 149.347656 95.078125 C 149.398438 95.101562 149.445312 95.121094 149.488281 95.140625 C 149.5 95.144531 149.511719 95.148438 149.523438 95.152344 C 149.820312 95.140625 150.121094 95.128906 150.414062 95.109375 L 150.417969 95.109375 C 150.582031 95.042969 150.789062 94.957031 151.03125 94.855469 C 151.039062 94.851562 151.050781 94.847656 151.058594 94.84375 C 151.109375 94.820312 151.160156 94.800781 151.210938 94.777344 C 151.222656 94.773438 151.230469 94.769531 151.238281 94.765625 C 151.398438 94.699219 151.570312 94.625 151.753906 94.542969 C 151.777344 94.53125 151.804688 94.519531 151.832031 94.507812 C 151.878906 94.488281 151.925781 94.46875 151.976562 94.445312 C 152.011719 94.429688 152.046875 94.414062 152.078125 94.398438 C 152.128906 94.375 152.179688 94.355469 152.230469 94.332031 C 152.265625 94.316406 152.300781 94.300781 152.335938 94.285156 C 152.417969 94.246094 152.503906 94.210938 152.585938 94.171875 C 152.640625 94.148438 152.695312 94.121094 152.75 94.097656 C 152.796875 94.078125 152.847656 94.054688 152.894531 94.03125 C 152.945312 94.007812 152.992188 93.988281 153.042969 93.964844 C 153.09375 93.941406 153.148438 93.917969 153.199219 93.890625 C 153.25 93.867188 153.304688 93.84375 153.355469 93.820312 C 153.40625 93.796875 153.457031 93.773438 153.507812 93.75 C 153.574219 93.71875 153.640625 93.6875 153.710938 93.652344 C 153.765625 93.628906 153.820312 93.601562 153.878906 93.574219 C 153.964844 93.53125 154.058594 93.492188 154.148438 93.445312 C 154.195312 93.425781 154.242188 93.402344 154.285156 93.382812 C 154.355469 93.347656 154.429688 93.3125 154.5 93.277344 C 154.550781 93.253906 154.597656 93.230469 154.648438 93.207031 C 154.722656 93.171875 154.796875 93.132812 154.875 93.097656 C 154.921875 93.074219 154.96875 93.050781 155.015625 93.027344 C 155.121094 92.976562 155.226562 92.925781 155.332031 92.871094 C 155.363281 92.855469 155.398438 92.839844 155.429688 92.824219 C 155.542969 92.769531 155.652344 92.714844 155.765625 92.65625 C 155.808594 92.636719 155.855469 92.613281 155.898438 92.589844 C 155.984375 92.546875 156.074219 92.503906 156.164062 92.457031 C 156.214844 92.433594 156.261719 92.40625 156.3125 92.382812 C 156.40625 92.332031 156.5 92.285156 156.597656 92.238281 C 156.636719 92.214844 156.679688 92.195312 156.722656 92.171875 C 156.859375 92.101562 157 92.027344 157.144531 91.957031 C 157.148438 91.953125 157.15625 91.949219 157.164062 91.945312 C 157.296875 91.875 157.429688 91.804688 157.566406 91.734375 C 157.609375 91.710938 157.65625 91.6875 157.699219 91.664062 C 157.804688 91.609375 157.910156 91.550781 158.015625 91.496094 C 158.058594 91.472656 158.105469 91.449219 158.152344 91.421875 C 158.265625 91.359375 158.382812 91.296875 158.5 91.234375 C 158.535156 91.21875 158.566406 91.199219 158.601562 91.179688 C 158.753906 91.097656 158.910156 91.011719 159.066406 90.925781 C 159.078125 90.917969 159.09375 90.910156 159.109375 90.90625 C 159.246094 90.828125 159.390625 90.75 159.53125 90.671875 C 159.570312 90.648438 159.613281 90.625 159.652344 90.601562 C 159.773438 90.535156 159.894531 90.46875 160.015625 90.398438 C 160.058594 90.375 160.101562 90.351562 160.140625 90.328125 C 160.28125 90.25 160.421875 90.167969 160.5625 90.089844 C 160.582031 90.078125 160.601562 90.066406 160.621094 90.054688 C 160.789062 89.957031 160.957031 89.863281 161.128906 89.761719 C 161.144531 89.753906 161.160156 89.746094 161.175781 89.734375 C 161.324219 89.648438 161.472656 89.5625 161.621094 89.472656 C 161.664062 89.449219 161.703125 89.425781 161.742188 89.402344 C 161.875 89.324219 162.007812 89.246094 162.140625 89.167969 C 162.179688 89.144531 162.21875 89.121094 162.257812 89.097656 C 162.417969 89 162.582031 88.902344 162.746094 88.800781 C 162.75 88.800781 162.753906 88.796875 162.757812 88.792969 C 158.78125 90.363281 154.445312 91.226562 149.910156 91.226562 C 147.355469 91.226562 144.867188 90.953125 142.46875 90.433594 " fill-opacity="1" fill-rule="nonzero"/></g><path fill="#52a5d7" d="M 119.101562 38.550781 C 119.289062 38.5 119.46875 38.429688 119.652344 38.363281 C 121.003906 36.054688 122.605469 33.917969 124.429688 31.984375 C 123.308594 32.378906 122.234375 32.867188 121.214844 33.4375 C 121.210938 33.4375 121.207031 33.4375 121.203125 33.441406 C 120.59375 33.78125 120.007812 34.152344 119.4375 34.546875 C 119.429688 34.550781 119.425781 34.554688 119.421875 34.558594 C 119.046875 34.820312 118.679688 35.09375 118.324219 35.382812 C 118.3125 35.390625 118.300781 35.398438 118.289062 35.410156 C 117.933594 35.695312 117.589844 35.992188 117.253906 36.300781 C 117.25 36.304688 117.246094 36.308594 117.242188 36.3125 C 117.082031 36.460938 116.921875 36.613281 116.765625 36.765625 C 116.753906 36.777344 116.742188 36.789062 116.730469 36.800781 C 116.410156 37.117188 116.101562 37.441406 115.804688 37.777344 C 115.789062 37.792969 115.773438 37.808594 115.761719 37.824219 C 115.613281 37.992188 115.46875 38.160156 115.328125 38.328125 C 116.601562 38.667969 117.863281 38.914062 119.101562 38.550781 " fill-opacity="1" fill-rule="nonzero"/><path fill="#52a5d7" d="M 187.402344 52.945312 C 187.246094 52.941406 187.015625 53.011719 186.894531 53.109375 C 186.648438 53.320312 186.796875 53.453125 186.796875 53.453125 C 187.402344 53.464844 187.847656 53.53125 188.175781 53.761719 C 188.171875 53.535156 188.164062 53.3125 188.152344 53.089844 C 187.902344 53.007812 187.648438 52.953125 187.402344 52.945312 " fill-opacity="1" fill-rule="nonzero"/><path fill="#458fbc" d="M 187.957031 59.292969 C 187.875 60.050781 187.769531 60.800781 187.648438 61.542969 C 187.726562 61.3125 187.800781 61.082031 187.871094 60.851562 C 187.878906 60.832031 187.882812 60.8125 187.890625 60.792969 C 187.957031 60.574219 188.023438 60.351562 188.085938 60.128906 C 188.089844 60.113281 188.097656 60.09375 188.101562 60.078125 C 188.238281 59.597656 188.363281 59.113281 188.476562 58.621094 C 188.476562 58.621094 188.476562 58.621094 188.476562 58.617188 C 188.324219 58.855469 188.148438 59.082031 187.957031 59.292969 " fill-opacity="1" fill-rule="nonzero"/><g clip-path="url(#fe7fc66fb5)"><path fill="#458fbc" d="M 189.039062 53.535156 C 188.761719 53.34375 188.460938 53.191406 188.152344 53.089844 C 188.164062 53.3125 188.171875 53.535156 188.175781 53.761719 C 188.441406 53.945312 188.632812 54.234375 188.761719 54.6875 C 188.78125 54.753906 188.699219 54.929688 188.59375 55.132812 C 188.761719 55.359375 188.894531 55.613281 188.988281 55.878906 C 188.988281 55.878906 188.988281 55.875 188.988281 55.875 C 189.082031 55.207031 189.152344 54.527344 189.203125 53.839844 C 189.148438 53.738281 189.09375 53.632812 189.039062 53.535156 " fill-opacity="1" fill-rule="nonzero"/></g><path fill="#5db0e6" d="M 133.273438 47.570312 C 133.378906 47.886719 133.476562 48.242188 133.3125 48.53125 C 133.058594 48.976562 132.402344 48.941406 131.871094 48.925781 C 131.566406 48.914062 131.207031 48.988281 130.96875 49.152344 C 130.914062 49.203125 130.855469 49.257812 130.800781 49.308594 C 130.726562 49.40625 130.6875 49.523438 130.703125 49.65625 C 130.753906 50.082031 131.296875 50.222656 131.761719 50.164062 C 131.859375 50.132812 131.960938 50.109375 132.0625 50.09375 C 132.144531 50.070312 132.230469 50.046875 132.316406 50.023438 C 134.882812 47.859375 137.707031 46.003906 140.722656 44.535156 C 143.457031 43.199219 146.339844 42.164062 149.074219 40.855469 C 148.1875 39.386719 147.125 38.039062 145.914062 36.839844 C 145.910156 36.835938 145.910156 36.835938 145.90625 36.832031 C 141.886719 40.542969 137.339844 43.679688 133.15625 47.222656 C 133.195312 47.339844 133.234375 47.457031 133.273438 47.570312 " fill-opacity="1" fill-rule="nonzero"/><path fill="#5db0e6" d="M 158.460938 33.414062 C 158.460938 33.414062 158.460938 33.417969 158.457031 33.417969 C 157.792969 33.785156 157.152344 34.191406 156.539062 34.625 C 156.519531 34.636719 156.503906 34.648438 156.488281 34.660156 C 156.34375 34.765625 156.199219 34.871094 156.054688 34.976562 C 156.042969 34.988281 156.03125 34.996094 156.019531 35.003906 C 155.421875 35.457031 154.851562 35.9375 154.308594 36.449219 C 154.296875 36.460938 154.285156 36.472656 154.269531 36.484375 C 154.144531 36.605469 154.015625 36.726562 153.890625 36.851562 C 153.875 36.867188 153.859375 36.882812 153.84375 36.898438 C 153.3125 37.429688 152.8125 37.984375 152.34375 38.570312 C 152.339844 38.574219 152.332031 38.582031 152.328125 38.589844 C 152.21875 38.726562 152.109375 38.867188 152 39.007812 C 151.984375 39.027344 151.96875 39.046875 151.953125 39.070312 C 151.847656 39.210938 151.742188 39.351562 151.636719 39.496094 C 151.636719 39.5 151.636719 39.5 151.636719 39.5 C 151.910156 39.339844 152.179688 39.175781 152.449219 39.003906 C 154.761719 37.515625 156.796875 35.605469 158.460938 33.414062 " fill-opacity="1" fill-rule="nonzero"/><path fill="#5db0e6" d="M 128.503906 52.433594 C 128.445312 52.429688 128.386719 52.429688 128.332031 52.429688 C 127.988281 52.632812 127.667969 52.871094 127.378906 53.148438 C 126.863281 53.644531 126.464844 54.25 126.070312 54.84375 C 125.46875 55.761719 124.847656 56.855469 125.074219 57.878906 C 126.695312 55.597656 128.546875 53.476562 130.585938 51.558594 C 129.839844 51.730469 129.117188 51.984375 128.46875 52.355469 C 128.480469 52.378906 128.492188 52.40625 128.503906 52.433594 " fill-opacity="1" fill-rule="nonzero"/><path fill="#5db0e6" d="M 118.644531 72.003906 C 119.121094 70.019531 119.742188 68.070312 120.507812 66.175781 C 121 64.972656 121.546875 63.796875 122.152344 62.644531 C 121.738281 62.183594 121.351562 61.757812 121.046875 61.570312 C 120.941406 61.503906 120.839844 61.453125 120.734375 61.410156 C 119.34375 63.578125 118.089844 65.835938 116.972656 68.160156 C 116.738281 68.644531 116.511719 69.128906 116.292969 69.621094 C 116.457031 69.871094 116.625 70.121094 116.796875 70.367188 C 116.8125 70.390625 116.832031 70.417969 116.847656 70.445312 C 117.015625 70.6875 117.1875 70.925781 117.359375 71.164062 C 117.527344 71.398438 117.699219 71.632812 117.875 71.863281 C 117.90625 71.90625 117.9375 71.949219 117.972656 71.992188 C 118.140625 72.214844 118.308594 72.433594 118.480469 72.652344 C 118.484375 72.65625 118.484375 72.660156 118.488281 72.664062 C 118.539062 72.445312 118.589844 72.222656 118.644531 72.003906 " fill-opacity="1" fill-rule="nonzero"/><path fill="#5db0e6" d="M 122.121094 59.332031 C 122.210938 59.371094 122.300781 59.417969 122.378906 59.476562 C 122.414062 59.503906 122.4375 59.546875 122.4375 59.59375 C 122.476562 60.265625 122.75 60.535156 123.160156 60.832031 C 123.679688 59.957031 124.230469 59.097656 124.808594 58.261719 C 124.316406 58.230469 123.882812 57.871094 123.4375 57.507812 C 122.988281 58.109375 122.546875 58.71875 122.121094 59.332031 " fill-opacity="1" fill-rule="nonzero"/><path fill="#5db0e6" d="M 173.714844 64.226562 C 173.550781 64.03125 173.40625 63.828125 173.300781 63.628906 C 173.171875 63.382812 173.066406 63.125 172.960938 62.867188 C 169.882812 65.859375 166.433594 68.378906 162.75 70.300781 C 162.46875 71.296875 162.1875 72.292969 161.910156 73.289062 C 163.953125 71.957031 165.980469 70.601562 167.941406 69.128906 C 169.945312 67.617188 171.871094 65.976562 173.714844 64.226562 " fill-opacity="1" fill-rule="nonzero"/><path fill="#5db0e6" d="M 142.46875 90.433594 C 144.25 87.425781 146.550781 84.757812 149.027344 82.519531 C 150.644531 81.0625 152.34375 79.742188 154.089844 78.492188 C 153.746094 77.875 153.453125 77.230469 153.25 76.550781 C 153.007812 75.742188 152.894531 74.910156 152.800781 74.066406 C 150.4375 74.796875 148.085938 75.574219 145.859375 76.738281 C 141.484375 79.027344 137.734375 82.824219 135.21875 87.425781 C 135.511719 87.617188 135.804688 87.808594 136.097656 87.992188 C 136.101562 87.996094 136.105469 88 136.113281 88.003906 C 136.398438 88.183594 136.683594 88.363281 136.964844 88.539062 C 136.972656 88.546875 136.984375 88.550781 136.996094 88.558594 C 137.273438 88.730469 137.550781 88.902344 137.824219 89.066406 C 137.835938 89.074219 137.847656 89.082031 137.863281 89.089844 C 138.132812 89.253906 138.402344 89.417969 138.667969 89.574219 C 138.683594 89.585938 138.699219 89.59375 138.714844 89.601562 C 138.980469 89.757812 139.242188 89.914062 139.503906 90.066406 C 139.515625 90.074219 139.53125 90.082031 139.542969 90.089844 C 139.804688 90.242188 140.066406 90.390625 140.320312 90.535156 C 140.332031 90.542969 140.34375 90.550781 140.355469 90.558594 C 140.617188 90.703125 140.871094 90.847656 141.125 90.988281 C 141.132812 90.992188 141.136719 90.996094 141.144531 91 C 141.402344 91.144531 141.652344 91.285156 141.902344 91.417969 C 141.90625 91.421875 141.90625 91.421875 141.910156 91.421875 C 142.089844 91.089844 142.277344 90.757812 142.46875 90.433594 " fill-opacity="1" fill-rule="nonzero"/><g clip-path="url(#07d6354947)"><path fill="#99d656" d="M 188.636719 57.898438 C 188.679688 57.691406 188.71875 57.484375 188.757812 57.277344 C 188.761719 57.261719 188.765625 57.246094 188.765625 57.234375 C 188.808594 57.015625 188.84375 56.796875 188.878906 56.578125 C 188.882812 56.574219 188.882812 56.570312 188.882812 56.5625 C 188.921875 56.339844 188.953125 56.113281 188.984375 55.882812 C 188.984375 55.882812 188.984375 55.882812 188.988281 55.878906 C 188.894531 55.613281 188.761719 55.359375 188.59375 55.132812 C 188.699219 54.929688 188.78125 54.753906 188.761719 54.6875 C 188.632812 54.234375 188.441406 53.945312 188.175781 53.761719 C 187.847656 53.53125 187.402344 53.464844 186.796875 53.453125 C 186.796875 53.453125 186.648438 53.320312 186.894531 53.109375 C 187.015625 53.011719 187.246094 52.941406 187.402344 52.945312 C 187.648438 52.953125 187.902344 53.007812 188.152344 53.089844 C 188.460938 53.191406 188.761719 53.34375 189.039062 53.535156 C 189.09375 53.632812 189.148438 53.738281 189.203125 53.839844 C 189.226562 53.488281 189.246094 53.132812 189.257812 52.777344 C 189.261719 52.746094 189.261719 52.710938 189.261719 52.679688 C 189.273438 52.332031 189.28125 51.980469 189.28125 51.625 C 189.28125 51.410156 189.277344 51.199219 189.273438 50.984375 C 189.269531 50.921875 189.265625 50.859375 189.265625 50.796875 C 189.257812 50.640625 189.25 50.484375 189.242188 50.328125 C 189.238281 50.265625 189.234375 50.203125 189.230469 50.136719 C 189.214844 49.941406 189.199219 49.742188 189.179688 49.546875 C 189.179688 49.53125 189.175781 49.519531 189.175781 49.507812 C 189.15625 49.296875 189.128906 49.089844 189.101562 48.882812 C 189.09375 48.824219 189.085938 48.765625 189.078125 48.707031 C 189.054688 48.554688 189.035156 48.398438 189.007812 48.242188 C 189 48.183594 188.988281 48.125 188.976562 48.066406 C 188.945312 47.878906 188.910156 47.691406 188.875 47.503906 C 188.871094 47.488281 188.867188 47.46875 188.863281 47.453125 C 188.824219 47.246094 188.777344 47.042969 188.730469 46.839844 C 188.71875 46.792969 188.707031 46.742188 188.691406 46.691406 C 188.65625 46.535156 188.617188 46.378906 188.574219 46.226562 C 188.558594 46.171875 188.546875 46.117188 188.53125 46.0625 C 188.480469 45.882812 188.429688 45.699219 188.375 45.523438 C 188.367188 45.503906 188.363281 45.488281 188.359375 45.46875 C 188.296875 45.269531 188.230469 45.070312 188.164062 44.871094 C 188.148438 44.832031 188.136719 44.792969 188.121094 44.757812 C 188.066406 44.597656 188.007812 44.4375 187.949219 44.28125 C 187.933594 44.234375 187.914062 44.1875 187.898438 44.140625 C 187.828125 43.964844 187.757812 43.785156 187.683594 43.609375 C 187.679688 43.597656 187.675781 43.585938 187.667969 43.570312 C 187.585938 43.375 187.5 43.179688 187.414062 42.988281 C 187.402344 42.960938 187.390625 42.9375 187.375 42.910156 C 187.300781 42.746094 187.222656 42.585938 187.144531 42.421875 C 187.125 42.386719 187.105469 42.347656 187.089844 42.308594 C 187 42.136719 186.910156 41.960938 186.820312 41.789062 C 186.8125 41.78125 186.808594 41.773438 186.804688 41.765625 C 186.703125 41.574219 186.597656 41.386719 186.488281 41.199219 C 186.484375 41.1875 186.476562 41.175781 186.46875 41.164062 C 186.371094 40.996094 186.269531 40.828125 186.167969 40.664062 C 186.148438 40.632812 186.132812 40.605469 186.117188 40.578125 C 186.007812 40.40625 185.898438 40.238281 185.785156 40.070312 C 185.785156 40.066406 185.78125 40.0625 185.78125 40.0625 C 185.542969 39.703125 185.292969 39.355469 185.03125 39.015625 C 185.019531 38.996094 185.003906 38.976562 184.988281 38.957031 C 184.597656 38.449219 184.183594 37.957031 183.75 37.484375 C 183.738281 37.472656 183.726562 37.464844 183.71875 37.453125 C 183.273438 36.976562 182.8125 36.523438 182.328125 36.089844 C 182.320312 36.085938 182.316406 36.078125 182.308594 36.074219 C 181.820312 35.636719 181.3125 35.226562 180.78125 34.835938 C 180.78125 34.835938 180.777344 34.832031 180.777344 34.832031 C 180.246094 34.441406 179.691406 34.074219 179.125 33.734375 C 178.609375 33.894531 178.09375 34.054688 177.578125 34.214844 C 177.511719 34.234375 177.441406 34.257812 177.375 34.277344 C 176.289062 34.617188 175.183594 35.003906 174.382812 35.804688 C 174.167969 36.023438 173.984375 36.285156 173.84375 36.566406 L 173.566406 36.703125 C 173.390625 36.792969 173.265625 36.957031 173.238281 37.152344 C 173.191406 37.46875 173.167969 37.800781 173.242188 38.070312 C 173.335938 38.398438 173.5 38.53125 173.683594 38.621094 C 174.039062 38.71875 174.003906 38.941406 173.949219 39.070312 C 173.703125 39.398438 173.351562 39.371094 172.988281 39.203125 L 172.765625 38.953125 C 172.289062 38.132812 172.480469 37.484375 172.472656 36.558594 C 172.472656 36.234375 172.085938 36.03125 171.832031 36.234375 C 171.574219 36.441406 171.601562 36.828125 171.65625 37.242188 C 171.398438 36.609375 171.039062 36.074219 170.253906 36.09375 C 170 36.101562 169.753906 36.179688 169.53125 36.296875 C 168.269531 36.953125 167.007812 37.609375 165.746094 38.265625 C 165.203125 38.550781 164.617188 38.761719 164.011719 38.867188 C 162.0625 39.199219 162.125 38.1875 161.636719 37.535156 C 161.039062 36.730469 159.851562 36.71875 158.871094 36.90625 C 156.472656 37.371094 154.257812 38.640625 152.578125 40.414062 C 152.460938 40.511719 152.347656 40.617188 152.253906 40.734375 C 152.210938 40.789062 152.171875 40.84375 152.140625 40.898438 C 151.648438 41.480469 151.214844 42.109375 150.847656 42.773438 C 150.828125 42.777344 150.78125 42.863281 150.777344 42.898438 C 150.609375 43.214844 150.695312 43.476562 150.789062 43.628906 C 151.046875 43.996094 151.453125 43.84375 151.953125 43.550781 C 152.40625 43.632812 152.835938 43.847656 153.148438 44.1875 C 153.367188 44.417969 153.535156 44.699219 153.800781 44.875 C 153.921875 44.957031 154.054688 45.007812 154.191406 45.03125 C 154.386719 45.179688 154.667969 45.242188 155.097656 45.160156 C 155.996094 44.980469 155.984375 44.605469 155.769531 44.144531 C 156.078125 43.546875 156.097656 42.847656 156.085938 42.167969 C 156.082031 42.070312 156.183594 42.007812 156.269531 42.050781 C 156.433594 42.128906 156.585938 42.230469 156.726562 42.347656 C 156.820312 42.425781 156.855469 42.550781 156.824219 42.667969 C 156.773438 42.867188 156.910156 43.101562 157.488281 43.546875 C 157.621094 44.011719 157.621094 44.507812 157.441406 44.960938 C 157.394531 45.078125 157.332031 45.191406 157.265625 45.296875 C 156.625 45.734375 155.804688 46.195312 155.15625 46.371094 C 154.898438 46.363281 154.644531 46.308594 154.40625 46.203125 C 153.925781 45.988281 153.449219 45.601562 152.972656 45.394531 C 152.710938 45.128906 151.9375 45.238281 151.933594 45.363281 C 151.515625 45.578125 151.292969 46.054688 150.953125 46.382812 C 150.601562 46.726562 149.863281 46.800781 149.734375 46.324219 C 149.621094 45.867188 149.507812 45.414062 149.394531 44.957031 C 149.164062 44.757812 147.9375 45.394531 147.871094 45.648438 C 147.722656 46.21875 148.5625 49.007812 148.273438 49.535156 C 148.085938 49.871094 147.515625 50.175781 147.304688 50.636719 C 146.917969 51.828125 147.277344 53.765625 148.992188 53.570312 C 149.523438 53.507812 149.8125 53.257812 150.015625 52.945312 C 150.679688 52.828125 151.328125 52.519531 151.867188 52.148438 C 152.085938 52 152.324219 51.886719 152.582031 51.835938 C 153.289062 51.699219 153.589844 52 153.835938 52.371094 C 154.03125 53.019531 153.773438 53.441406 153.792969 53.582031 C 154.445312 53.785156 154.808594 53.695312 154.992188 53.449219 C 155.230469 53.527344 155.484375 53.570312 155.730469 53.609375 C 156.355469 53.710938 156.976562 53.8125 157.601562 53.914062 C 157.476562 54.53125 158.226562 54.34375 159.097656 54.15625 C 159.546875 54.230469 160 54.304688 160.449219 54.378906 C 160.804688 54.433594 161.203125 54.566406 161.535156 54.753906 C 161.816406 55.472656 161.410156 56.339844 160.691406 56.71875 L 160.671875 56.722656 C 157.964844 57.019531 155.304688 55.136719 152.671875 54.242188 C 152.1875 53.816406 151.679688 53.691406 150.730469 53.8125 C 150.042969 53.753906 149.355469 53.816406 148.667969 54.0625 C 146.964844 54.675781 146.21875 56.097656 145.839844 57.699219 C 145.5 58.214844 145.25 58.847656 145.085938 59.421875 C 144.722656 60.691406 144.351562 61.996094 144.457031 63.316406 C 144.550781 64.5 145.113281 65.710938 146.101562 66.332031 C 146.792969 66.867188 147.75 66.980469 148.777344 66.96875 C 148.992188 67.003906 149.203125 67.050781 149.40625 67.117188 C 151.105469 67.679688 152.066406 69.496094 152.429688 71.25 C 152.621094 72.175781 152.699219 73.125 152.800781 74.066406 C 152.894531 74.910156 153.007812 75.742188 153.25 76.550781 C 153.453125 77.230469 153.746094 77.875 154.089844 78.492188 C 154.261719 78.792969 154.441406 79.085938 154.636719 79.375 C 155.097656 80.683594 155.800781 81.898438 156.894531 82.128906 C 157 82.214844 157.117188 82.285156 157.253906 82.308594 C 157.546875 82.363281 157.828125 82.195312 158.0625 82.011719 C 159.195312 81.566406 159.867188 80.238281 160.214844 78.886719 C 160.570312 78.015625 160.839844 77.09375 161.09375 76.191406 C 161.1875 75.859375 161.28125 75.527344 161.375 75.191406 C 161.777344 74.398438 161.894531 74.015625 161.867188 73.429688 C 161.882812 73.382812 161.894531 73.335938 161.910156 73.289062 C 162.1875 72.292969 162.46875 71.296875 162.75 70.300781 C 162.914062 69.707031 163.082031 69.117188 163.246094 68.523438 C 163.496094 68.1875 163.738281 67.804688 163.949219 67.320312 C 164.605469 65.832031 164.628906 65.40625 164.175781 64.8125 C 163.820312 64.328125 162.945312 63.988281 162.328125 63.640625 L 162.328125 63.636719 C 161.644531 62.917969 159.769531 59.855469 160.230469 58.777344 C 160.800781 58.648438 161.542969 59.203125 161.75 59.851562 C 161.945312 60.464844 161.925781 61.152344 162.101562 61.765625 C 162.015625 62.015625 161.972656 62.253906 162.066406 62.460938 C 162.269531 62.929688 162.824219 63.589844 163.652344 63.570312 C 165.074219 63.371094 168.597656 62.390625 168.605469 60.507812 C 168.613281 58.90625 167.808594 59.699219 166.945312 59.144531 C 166.320312 58.757812 166.390625 58.210938 165.574219 57.84375 C 165.015625 57.691406 165.316406 57.316406 165.574219 57.3125 C 165.921875 57.230469 166.179688 57.277344 166.394531 57.394531 C 166.433594 57.414062 166.46875 57.4375 166.503906 57.457031 C 166.988281 57.785156 167.246094 58.4375 167.84375 58.503906 C 168.074219 58.527344 168.285156 58.570312 168.476562 58.625 C 168.957031 58.910156 169.433594 59.191406 169.914062 59.472656 C 170.820312 60.394531 170.925781 61.464844 171.382812 60.414062 L 171.414062 60.40625 C 171.582031 60.53125 171.746094 60.664062 171.886719 60.820312 C 172.414062 61.390625 172.667969 62.140625 172.960938 62.867188 C 173.066406 63.125 173.171875 63.382812 173.300781 63.628906 C 173.40625 63.828125 173.550781 64.03125 173.714844 64.226562 C 174.316406 64.9375 175.234375 65.488281 175.832031 64.957031 C 176.484375 64.304688 174.890625 63.878906 175.550781 62.410156 C 175.578125 62.351562 175.605469 62.292969 175.640625 62.230469 L 175.699219 62.253906 C 176.816406 62.71875 178.136719 62.675781 179.214844 62.128906 L 179.214844 62.140625 L 179.238281 62.140625 C 179.808594 63.699219 180.382812 65.253906 180.957031 66.8125 C 181.148438 67.332031 181.734375 67.609375 182.230469 67.363281 C 182.738281 67.113281 182.59375 66.519531 182.808594 66.09375 C 182.984375 65.746094 183.351562 65.574219 183.722656 65.402344 C 184.121094 65.222656 184.519531 65.046875 184.683594 64.664062 C 184.804688 64.382812 184.757812 64.070312 184.71875 63.757812 C 184.796875 63.535156 184.839844 63.289062 184.820312 63.035156 C 184.8125 62.9375 184.792969 62.847656 184.765625 62.761719 C 185.09375 61.574219 186.394531 60.722656 187.386719 59.855469 C 187.585938 59.683594 187.777344 59.492188 187.957031 59.292969 C 188.148438 59.082031 188.324219 58.855469 188.476562 58.617188 C 188.480469 58.613281 188.480469 58.609375 188.480469 58.601562 C 188.53125 58.390625 188.578125 58.175781 188.625 57.960938 C 188.628906 57.9375 188.632812 57.917969 188.636719 57.898438 " fill-opacity="1" fill-rule="nonzero"/></g><g clip-path="url(#b0f1cbb34b)"><path fill="#99d656" d="M 127.769531 31.316406 C 127.585938 31.273438 127.417969 31.339844 127.285156 31.660156 C 126.855469 34.363281 129.871094 32.671875 131.136719 33.667969 C 131.566406 34.003906 131.664062 34.667969 132.078125 35.003906 C 132.410156 35.285156 133.089844 35.261719 133.304688 35.632812 C 133.65625 36.261719 132.984375 37.601562 133.316406 38.351562 C 133.539062 38.867188 134.191406 39.011719 134.285156 39.582031 C 134.367188 40.0625 133.902344 40.140625 133.863281 40.507812 C 133.769531 41.371094 134.011719 41.945312 134.84375 42.289062 C 135.585938 42.589844 136.558594 42.496094 137.113281 42.054688 C 137.710938 41.566406 137.757812 40.242188 138.226562 39.859375 C 138.640625 39.523438 139.335938 39.863281 139.746094 39.550781 C 140.164062 39.230469 140.019531 38.394531 140.355469 38.382812 C 140.578125 38.398438 140.433594 38.6875 140.488281 38.835938 C 140.558594 39.019531 140.726562 39.160156 140.921875 39.179688 C 141.578125 39.242188 141.257812 38.5625 141.675781 38.179688 C 142.109375 37.785156 142.820312 37.734375 143.121094 37.265625 C 143.367188 36.886719 143.265625 35.46875 143.433594 34.734375 C 143.226562 34.585938 143.019531 34.441406 142.808594 34.300781 C 142.785156 34.285156 142.761719 34.273438 142.742188 34.257812 C 142.550781 34.128906 142.355469 34.007812 142.160156 33.886719 C 142.128906 33.867188 142.097656 33.847656 142.0625 33.828125 C 141.875 33.714844 141.6875 33.601562 141.496094 33.492188 C 141.457031 33.472656 141.421875 33.453125 141.382812 33.429688 C 141.191406 33.324219 141 33.222656 140.804688 33.121094 C 140.769531 33.101562 140.734375 33.082031 140.695312 33.0625 C 140.492188 32.960938 140.285156 32.859375 140.078125 32.761719 C 140.054688 32.75 140.027344 32.738281 140 32.726562 C 139.285156 32.394531 138.550781 32.105469 137.796875 31.855469 C 137.773438 31.847656 137.753906 31.84375 137.730469 31.835938 C 137.511719 31.761719 137.289062 31.695312 137.0625 31.628906 C 137 31.609375 136.933594 31.59375 136.867188 31.574219 C 136.683594 31.523438 136.503906 31.476562 136.320312 31.429688 C 136.234375 31.410156 136.152344 31.390625 136.066406 31.371094 C 135.898438 31.332031 135.730469 31.292969 135.5625 31.257812 C 135.46875 31.238281 135.375 31.21875 135.277344 31.199219 C 135.117188 31.167969 134.957031 31.140625 134.792969 31.113281 C 134.695312 31.09375 134.59375 31.078125 134.492188 31.0625 C 134.332031 31.039062 134.171875 31.015625 134.011719 30.996094 C 133.910156 30.980469 133.808594 30.96875 133.703125 30.957031 C 133.539062 30.9375 133.375 30.921875 133.207031 30.90625 C 133.109375 30.898438 133.011719 30.886719 132.910156 30.878906 C 132.730469 30.867188 132.550781 30.855469 132.367188 30.847656 C 132.28125 30.84375 132.195312 30.835938 132.109375 30.832031 C 131.84375 30.824219 131.574219 30.816406 131.304688 30.816406 C 131.082031 30.816406 130.859375 30.820312 130.640625 30.828125 C 130.585938 30.832031 130.535156 30.832031 130.480469 30.835938 C 130.289062 30.84375 130.09375 30.851562 129.902344 30.867188 C 129.878906 30.867188 129.851562 30.867188 129.824219 30.871094 C 129.355469 30.902344 128.890625 30.953125 128.429688 31.015625 C 128.425781 31.015625 128.421875 31.015625 128.417969 31.019531 C 128.320312 31.246094 128.042969 31.378906 127.769531 31.316406 " fill-opacity="1" fill-rule="nonzero"/></g><path fill="#99d656" d="M 182.253906 69.679688 C 181.617188 69.164062 180.851562 68.5 179.808594 68.992188 C 178.929688 69.40625 178.894531 70.585938 177.839844 71.09375 C 176.207031 71.890625 174.84375 70.441406 174.4375 71.378906 C 174.15625 72.484375 174.601562 73.222656 175.8125 73.1875 C 176.5 75.074219 172.101562 77.785156 175.929688 78.582031 C 176.023438 78.601562 176.113281 78.613281 176.203125 78.621094 C 176.203125 78.621094 176.207031 78.621094 176.207031 78.617188 C 177.199219 77.664062 178.164062 76.671875 179.09375 75.640625 C 179.101562 75.632812 179.105469 75.625 179.113281 75.621094 C 179.417969 75.28125 179.71875 74.933594 180.015625 74.585938 C 180.019531 74.582031 180.023438 74.578125 180.027344 74.574219 C 180.632812 73.867188 181.214844 73.140625 181.777344 72.398438 C 182.054688 72.03125 182.328125 71.660156 182.597656 71.285156 C 182.601562 71.273438 182.609375 71.261719 182.617188 71.253906 C 182.886719 70.875 183.148438 70.496094 183.402344 70.113281 C 183.050781 70.304688 182.683594 70.027344 182.253906 69.679688 " fill-opacity="1" fill-rule="nonzero"/><g clip-path="url(#85ca9e182f)"><path fill="#99d656" d="M 128.957031 81.25 C 129.398438 81.234375 129.859375 81.1875 130.207031 80.929688 C 130.300781 80.859375 130.375 80.765625 130.433594 80.660156 C 130.519531 80.625 130.601562 80.574219 130.683594 80.5 C 130.695312 80.304688 130.675781 80.128906 130.617188 79.976562 C 130.578125 79.878906 130.636719 79.777344 130.738281 79.773438 C 132.0625 79.753906 133.328125 78.699219 133.449219 77.414062 C 133.511719 76.777344 133.371094 76.027344 133.84375 75.589844 C 133.875 75.578125 133.902344 75.5625 133.933594 75.546875 C 134.734375 75.386719 135.570312 75.496094 136.125 74.644531 C 136.335938 74.3125 136.398438 74 136.433594 73.671875 L 136.4375 73.644531 C 136.546875 73.339844 136.632812 73.023438 136.714844 72.722656 C 136.953125 71.867188 137.464844 70.890625 138.335938 70.761719 C 138.429688 70.746094 138.492188 70.652344 138.464844 70.5625 C 138.066406 69.285156 137.027344 68.199219 135.734375 67.726562 C 135.023438 67.46875 134.222656 67.371094 133.628906 66.910156 C 133.480469 66.796875 133.355469 66.664062 133.238281 66.523438 C 133.214844 66.496094 133.207031 66.464844 133.207031 66.429688 C 133.21875 65.832031 132.992188 65.257812 132.351562 64.957031 C 132.207031 64.890625 132.078125 64.851562 131.957031 64.828125 C 131.933594 64.816406 131.914062 64.804688 131.890625 64.792969 C 131.386719 64.316406 130.808594 63.914062 130.230469 63.519531 C 130.144531 63.460938 130.054688 63.402344 129.964844 63.34375 C 129.933594 63.238281 129.96875 63.097656 129.878906 63.027344 C 129.742188 62.953125 129.300781 62.949219 129.039062 62.839844 C 129 62.824219 128.964844 62.804688 128.925781 62.789062 C 128.625 62.660156 128.347656 62.519531 128.066406 62.503906 C 127.753906 62.488281 127.660156 62.539062 127.613281 62.609375 C 127.402344 62.601562 127.210938 62.570312 127.066406 62.441406 C 126.992188 62.410156 127.105469 62.300781 127.039062 62.261719 C 127.039062 62.261719 127.003906 62.230469 126.890625 62.324219 C 126.6875 62.367188 126.269531 62.679688 125.925781 63.089844 L 125.875 63.128906 C 125.601562 63.261719 125.304688 63.328125 124.976562 63.242188 C 124.519531 63.128906 124.460938 61.875 124.117188 61.5625 C 123.757812 61.226562 123.429688 61.023438 123.160156 60.832031 C 122.75 60.535156 122.476562 60.265625 122.4375 59.59375 C 122.4375 59.546875 122.414062 59.503906 122.378906 59.476562 C 122.300781 59.417969 122.210938 59.371094 122.121094 59.332031 C 121.761719 59.179688 121.328125 59.1875 120.988281 59.375 C 120.695312 59.535156 120.832031 59.265625 120.539062 59.109375 C 120.421875 59.046875 120.351562 58.925781 120.304688 58.808594 C 119.855469 57.726562 121.136719 56.414062 122.285156 56.78125 C 122.707031 56.917969 123.074219 57.214844 123.4375 57.507812 C 123.882812 57.871094 124.316406 58.230469 124.808594 58.261719 C 124.871094 58.265625 124.933594 58.265625 125 58.257812 C 125.097656 58.25 125.152344 58.152344 125.125 58.0625 C 125.105469 58 125.089844 57.941406 125.074219 57.878906 C 124.847656 56.855469 125.46875 55.761719 126.070312 54.84375 C 126.464844 54.25 126.863281 53.644531 127.378906 53.148438 C 127.667969 52.871094 127.988281 52.632812 128.332031 52.429688 C 128.386719 52.429688 128.445312 52.429688 128.503906 52.433594 C 128.492188 52.40625 128.480469 52.378906 128.46875 52.355469 C 129.117188 51.984375 129.839844 51.730469 130.585938 51.558594 C 130.878906 51.492188 131.171875 51.4375 131.46875 51.394531 C 132.335938 51.269531 133.503906 50.90625 133.4375 50.097656 C 133.433594 50.046875 133.398438 50 133.351562 49.976562 C 133.035156 49.835938 132.671875 49.917969 132.316406 50.023438 C 132.230469 50.046875 132.144531 50.070312 132.0625 50.09375 C 131.960938 50.109375 131.859375 50.132812 131.761719 50.164062 C 131.296875 50.222656 130.753906 50.082031 130.703125 49.65625 C 130.6875 49.523438 130.726562 49.40625 130.800781 49.308594 C 130.84375 49.25 130.902344 49.199219 130.96875 49.152344 C 131.207031 48.988281 131.566406 48.914062 131.871094 48.925781 C 132.402344 48.941406 133.058594 48.976562 133.3125 48.53125 C 133.476562 48.242188 133.378906 47.886719 133.273438 47.570312 C 133.234375 47.457031 133.195312 47.339844 133.15625 47.222656 C 132.609375 45.648438 131.835938 43.976562 130.261719 43.421875 C 130.203125 43.402344 130.132812 43.425781 130.09375 43.476562 C 129.929688 43.703125 129.765625 43.933594 129.601562 44.160156 C 129.542969 44.238281 129.425781 44.238281 129.367188 44.160156 C 129.210938 43.953125 129.050781 43.746094 128.875 43.554688 C 128.738281 43.363281 128.566406 43.203125 128.335938 43.078125 C 128.152344 42.949219 127.960938 42.847656 127.742188 42.78125 C 127.535156 42.714844 127.304688 42.710938 127.082031 42.746094 C 126.648438 42.730469 126.226562 42.84375 126.222656 43.203125 C 126.078125 43.375 126 43.582031 126.019531 43.8125 C 126.03125 43.945312 126.074219 44.066406 126.125 44.1875 C 126.019531 44.367188 126.136719 44.488281 126.304688 44.597656 L 126.304688 44.601562 C 126.625 45.375 126.40625 46.320312 125.796875 46.90625 C 125.734375 46.964844 125.632812 46.945312 125.589844 46.867188 C 125.203125 46.203125 124.6875 45.609375 124.070312 45.132812 C 123.570312 44.742188 122.984375 44.40625 122.675781 43.859375 C 122.375 43.328125 122.511719 42.519531 123.085938 42.328125 C 123.125 42.316406 123.167969 42.324219 123.203125 42.34375 C 124.050781 42.839844 125.226562 42.75 125.96875 42.121094 C 126.140625 41.976562 126.296875 41.734375 126.167969 41.554688 C 126.078125 41.421875 125.894531 41.402344 125.742188 41.347656 C 125.371094 41.21875 125.152344 40.855469 125.105469 40.472656 C 125.097656 40.410156 125.132812 40.351562 125.1875 40.324219 C 125.34375 40.25 125.5 40.15625 125.5625 39.929688 C 125.621094 39.71875 125.535156 39.488281 125.441406 39.261719 C 125.375 39.089844 125.617188 38.878906 125.703125 38.847656 C 126.089844 38.542969 126.699219 38.546875 127.085938 38.855469 C 127.128906 38.886719 127.328125 39.167969 127.386719 39.253906 C 127.511719 39.542969 127.515625 39.886719 127.363281 40.164062 C 127.183594 40.492188 126.820312 40.824219 126.894531 41.148438 C 126.425781 41.515625 126.296875 41.921875 127.234375 41.855469 C 127.433594 41.839844 127.523438 41.804688 127.550781 41.761719 C 127.585938 41.710938 127.640625 41.675781 127.699219 41.699219 C 127.832031 41.753906 127.960938 41.8125 128.09375 41.867188 L 128.148438 41.90625 C 129.335938 43.371094 130.648438 42.789062 130.847656 42.589844 C 130.972656 42.472656 131.019531 42.300781 131.050781 42.132812 C 131.097656 41.875 131.113281 41.617188 131.105469 41.355469 C 131.101562 41.289062 131.148438 41.230469 131.214844 41.214844 C 131.367188 41.171875 131.496094 41.042969 131.597656 40.769531 C 131.824219 40.152344 131.277344 40.015625 130.769531 39.785156 C 130.738281 39.769531 130.714844 39.742188 130.699219 39.714844 C 130.480469 39.246094 130.1875 38.8125 129.832031 38.433594 L 129.808594 38.398438 C 129.761719 38.289062 129.699219 38.183594 129.597656 38.085938 C 129.46875 37.957031 129.324219 37.886719 129.175781 37.839844 C 128.214844 37.097656 127.042969 36.632812 125.859375 36.238281 C 125.789062 36.164062 125.695312 36.121094 125.59375 36.113281 C 125.46875 36.082031 125.269531 36.03125 125.144531 36 C 125.007812 35.957031 124.859375 35.917969 124.707031 35.890625 C 124.703125 35.808594 124.675781 35.734375 124.609375 35.683594 C 124.40625 35.53125 123.960938 35.644531 123.5625 35.894531 C 123.214844 35.984375 122.957031 36.1875 122.917969 36.546875 C 122.84375 36.695312 122.808594 36.847656 122.832031 37 C 122.902344 37.464844 123.332031 37.660156 123.71875 37.898438 L 123.75 37.921875 C 124.101562 38.28125 124.402344 38.625 124.253906 38.976562 C 124.21875 39.058594 124.117188 39.085938 124.042969 39.042969 C 123.859375 38.941406 123.695312 38.878906 123.542969 38.835938 C 123.460938 38.71875 123.394531 38.621094 123.347656 38.570312 C 123.230469 38.441406 122.773438 38.601562 122.613281 38.40625 C 122.503906 38.28125 122.523438 37.984375 122.417969 37.867188 C 122.335938 37.777344 122.285156 37.679688 122.246094 37.585938 C 122.058594 37.136719 121.386719 37.359375 121.496094 37.832031 C 121.554688 38.085938 121.65625 38.339844 121.707031 38.605469 C 121.714844 38.644531 121.707031 38.6875 121.679688 38.71875 C 121.640625 38.769531 121.605469 38.835938 121.578125 38.933594 C 121.550781 39.019531 121.453125 39.066406 121.371094 39.027344 C 121.230469 38.960938 121.105469 38.863281 121.007812 38.746094 C 120.984375 38.722656 120.976562 38.691406 120.972656 38.660156 C 120.949219 38.460938 120.886719 38.273438 120.753906 38.175781 C 120.746094 38.128906 120.839844 38.097656 120.746094 38.039062 C 120.367188 38.089844 120.007812 38.226562 119.652344 38.363281 C 119.46875 38.429688 119.289062 38.5 119.101562 38.550781 C 117.863281 38.914062 116.601562 38.667969 115.328125 38.328125 C 115.160156 38.535156 114.992188 38.742188 114.832031 38.953125 C 114.820312 38.96875 114.808594 38.984375 114.796875 38.996094 C 114.304688 39.640625 113.851562 40.3125 113.4375 41.011719 C 113.429688 41.027344 113.421875 41.039062 113.410156 41.054688 C 113.136719 41.523438 112.875 42.003906 112.636719 42.492188 C 112.636719 42.496094 112.636719 42.496094 112.636719 42.496094 C 112.515625 42.742188 112.402344 42.988281 112.292969 43.238281 C 112.285156 43.25 112.28125 43.261719 112.277344 43.273438 C 112.054688 43.777344 111.855469 44.292969 111.671875 44.816406 C 111.671875 44.816406 111.671875 44.816406 111.671875 44.820312 C 111.582031 45.082031 111.496094 45.347656 111.414062 45.613281 C 111.414062 45.621094 111.410156 45.625 111.410156 45.632812 C 111.25 46.167969 111.109375 46.714844 110.992188 47.265625 C 110.992188 47.269531 110.992188 47.269531 110.992188 47.273438 C 110.933594 47.550781 110.878906 47.828125 110.832031 48.113281 C 110.832031 48.113281 110.828125 48.117188 110.828125 48.117188 C 110.734375 48.679688 110.660156 49.25 110.613281 49.828125 C 110.613281 49.832031 110.609375 49.835938 110.609375 49.839844 C 110.585938 50.128906 110.566406 50.417969 110.554688 50.710938 C 110.816406 51.015625 111.101562 51.304688 111.363281 51.613281 C 111.382812 51.632812 111.394531 51.664062 111.394531 51.691406 C 111.488281 52.71875 111.96875 53.554688 112.570312 54.457031 L 112.59375 54.511719 C 112.855469 55.871094 112.984375 57.289062 113.792969 58.40625 C 114.066406 58.785156 114.550781 59.128906 114.976562 59.050781 C 115.058594 59.035156 115.136719 59.007812 115.210938 58.960938 C 115.714844 58.636719 115.5 57.878906 115.195312 57.371094 C 115.078125 57.175781 114.949219 56.921875 114.859375 56.671875 C 114.738281 56.324219 114.691406 55.980469 114.855469 55.808594 C 114.882812 55.785156 114.910156 55.761719 114.941406 55.746094 C 115.390625 55.628906 116.394531 58.476562 116.476562 59.992188 L 116.488281 60.046875 C 117.433594 62.097656 119.1875 60.761719 120.734375 61.410156 C 120.839844 61.453125 120.941406 61.503906 121.046875 61.570312 C 121.351562 61.757812 121.738281 62.183594 122.152344 62.644531 C 122.335938 62.855469 122.527344 63.066406 122.71875 63.273438 L 122.746094 63.324219 C 122.792969 63.378906 122.859375 63.4375 122.929688 63.496094 C 123.644531 64.226562 124.332031 64.722656 124.738281 64.035156 C 124.796875 63.9375 124.949219 63.953125 125 64.0625 C 125.363281 64.859375 124.457031 65.851562 124.015625 66.726562 C 123.402344 67.9375 123.742188 69.402344 124.320312 70.636719 C 124.898438 71.867188 125.707031 73.015625 126.054688 74.324219 C 126.558594 76.207031 126.054688 78.144531 125.53125 80.078125 C 125.53125 80.082031 125.53125 80.082031 125.535156 80.082031 C 125.777344 80.296875 126.019531 80.511719 126.265625 80.722656 C 126.277344 80.734375 126.285156 80.742188 126.296875 80.75 C 127.042969 81.394531 127.792969 82.019531 128.546875 82.621094 C 128.550781 82.621094 128.550781 82.625 128.554688 82.625 C 128.664062 82.210938 128.753906 81.792969 128.820312 81.371094 C 128.828125 81.304688 128.886719 81.253906 128.957031 81.25 " fill-opacity="1" fill-rule="nonzero"/></g></svg>