<svg xmlns="http://www.w3.org/2000/svg" xmlns:xlink="http://www.w3.org/1999/xlink" width="400" zoomAndPan="magnify" viewBox="0 0 300 299.999988" height="400" preserveAspectRatio="xMidYMid meet" version="1.0"><defs><clipPath id="b62c0c041f"><path d="M 119 187.785156 L 232 187.785156 L 232 270.285156 L 119 270.285156 Z M 119 187.785156 " clip-rule="nonzero"/></clipPath><clipPath id="d773992fc4"><path d="M 22.75 21.078125 L 138.25 21.078125 L 138.25 166.578125 L 22.75 166.578125 Z M 22.75 21.078125 " clip-rule="nonzero"/></clipPath></defs><path fill="#000000" d="M 142.105469 215.265625 L 130.851562 215.265625 L 130.851562 209.222656 L 142.105469 209.222656 Z M 128.511719 204.535156 C 127.21875 204.535156 126.167969 205.585938 126.167969 206.878906 L 126.167969 217.609375 C 126.167969 218.917969 127.21875 219.953125 128.511719 219.953125 L 144.445312 219.953125 C 145.738281 219.953125 146.789062 218.917969 146.789062 217.609375 L 146.789062 206.878906 C 146.789062 205.585938 145.738281 204.535156 144.445312 204.535156 L 128.511719 204.535156 " fill-opacity="1" fill-rule="nonzero"/><g clip-path="url(#b62c0c041f)"><path fill="#000000" d="M 148.957031 265.535156 L 124 265.535156 L 124 205.039062 C 124 198.140625 129.59375 192.539062 136.484375 192.539062 C 143.359375 192.539062 148.957031 198.140625 148.957031 205.039062 Z M 222.394531 236.789062 L 224.6875 236.789062 C 225.96875 236.789062 227.015625 237.835938 227.015625 239.121094 C 227.015625 240.414062 225.96875 241.464844 224.6875 241.464844 L 222.394531 241.464844 C 221.113281 241.464844 220.066406 240.414062 220.066406 239.121094 C 220.066406 237.835938 221.113281 236.789062 222.394531 236.789062 Z M 222.394531 246.152344 L 224.6875 246.152344 C 228.550781 246.152344 231.699219 243 231.699219 239.121094 C 231.699219 235.25 228.550781 232.101562 224.6875 232.101562 L 222.394531 232.101562 C 219.359375 232.101562 216.785156 234.054688 215.8125 236.777344 L 177.304688 236.777344 C 172.90625 236.777344 169.34375 240.351562 169.34375 244.757812 L 169.34375 257.0625 C 169.34375 258.882812 167.867188 260.359375 166.050781 260.359375 C 164.246094 260.359375 162.773438 258.882812 162.773438 257.0625 L 162.773438 223.25 C 162.773438 218.84375 159.199219 215.265625 154.808594 215.265625 L 153.640625 215.265625 L 153.640625 205.039062 C 153.640625 195.550781 145.945312 187.851562 136.484375 187.851562 C 127.023438 187.851562 119.316406 195.550781 119.316406 205.039062 L 119.316406 267.878906 C 119.316406 269.171875 120.367188 270.222656 121.65625 270.222656 L 151.296875 270.222656 C 152.589844 270.222656 153.640625 269.171875 153.640625 267.878906 L 153.640625 219.953125 L 154.808594 219.953125 C 156.613281 219.953125 158.089844 221.429688 158.089844 223.25 L 158.089844 257.0625 C 158.089844 261.46875 161.664062 265.046875 166.050781 265.046875 C 170.453125 265.046875 174.027344 261.46875 174.027344 257.0625 L 174.027344 244.757812 C 174.027344 242.941406 175.488281 241.464844 177.304688 241.464844 L 215.8125 241.464844 C 216.785156 244.183594 219.359375 246.152344 222.394531 246.152344 " fill-opacity="1" fill-rule="nonzero"/></g><path fill="#000000" d="M 261.265625 215.082031 L 254.902344 202.535156 C 252.804688 196.957031 247.390625 193.207031 241.429688 193.207031 L 208.03125 193.207031 C 202.082031 193.207031 196.667969 196.957031 194.679688 202.253906 L 187.851562 215.15625 C 183.632812 214.523438 179.636719 217.648438 179.636719 221.566406 C 179.636719 223.382812 180.476562 225.070312 181.867188 226.277344 C 181.148438 227.777344 180.660156 229.390625 180.425781 231.039062 C 180.246094 232.320312 181.132812 233.503906 182.414062 233.6875 C 183.707031 233.894531 184.890625 232.980469 185.0625 231.699219 C 185.316406 229.941406 185.976562 228.230469 186.976562 226.753906 C 187.390625 226.144531 187.488281 225.375 187.253906 224.679688 C 187.023438 223.996094 186.476562 223.445312 185.78125 223.214844 C 184.902344 222.921875 184.316406 222.261719 184.316406 221.566406 C 184.316406 220.257812 186.351562 219.257812 188.011719 220.050781 C 189.132812 220.601562 190.5 220.148438 191.082031 219.039062 L 198.949219 204.183594 C 200.363281 200.421875 204.007812 197.894531 208.03125 197.894531 L 241.429688 197.894531 C 245.453125 197.894531 249.109375 200.421875 250.621094 204.414062 L 257.925781 218.855469 C 258.472656 219.953125 259.777344 220.429688 260.910156 219.964844 C 262.570312 219.28125 264.460938 220.273438 264.460938 221.542969 C 264.460938 222.226562 263.910156 222.871094 263.058594 223.175781 C 262.375 223.421875 261.839844 223.96875 261.617188 224.652344 C 261.398438 225.351562 261.507812 226.105469 261.910156 226.703125 C 263.265625 228.671875 263.972656 230.964844 263.972656 233.34375 L 263.972656 239.414062 C 263.972656 241.4375 263.339844 243.390625 262.144531 245.039062 C 261.851562 245.441406 261.703125 245.917969 261.703125 246.417969 L 261.703125 257.027344 C 261.703125 258.664062 260.375 259.992188 258.742188 259.992188 L 252.972656 259.992188 C 251.339844 259.992188 250.011719 258.664062 250.011719 257.027344 L 250.011719 252.230469 C 250.011719 250.9375 248.964844 249.886719 247.671875 249.886719 L 200.949219 249.886719 C 199.65625 249.886719 198.605469 250.9375 198.605469 252.230469 L 198.605469 257.210938 C 198.605469 258.847656 197.277344 260.175781 195.644531 260.175781 L 189.875 260.175781 C 188.242188 260.175781 186.914062 258.847656 186.914062 257.210938 L 186.914062 245.980469 C 186.914062 244.6875 185.867188 243.636719 184.574219 243.636719 C 183.28125 243.636719 182.230469 244.6875 182.230469 245.980469 L 182.230469 257.210938 C 182.230469 261.433594 185.65625 264.863281 189.875 264.863281 L 195.644531 264.863281 C 199.851562 264.863281 203.289062 261.433594 203.289062 257.210938 L 203.289062 254.574219 L 245.328125 254.574219 L 245.328125 257.027344 C 245.328125 261.25 248.753906 264.679688 252.972656 264.679688 L 258.742188 264.679688 C 262.960938 264.679688 266.386719 261.25 266.386719 257.027344 L 266.386719 247.140625 C 267.875 244.820312 268.652344 242.171875 268.652344 239.414062 L 268.652344 233.34375 C 268.652344 230.855469 268.09375 228.414062 267.019531 226.191406 C 268.347656 224.996094 269.140625 223.335938 269.140625 221.542969 C 269.140625 217.71875 265.386719 214.65625 261.265625 215.082031 " fill-opacity="1" fill-rule="nonzero"/><path fill="#000000" d="M 205.238281 206.464844 C 205.496094 205.660156 206.25 205.109375 207.09375 205.109375 L 241.683594 205.109375 C 242.523438 205.109375 243.28125 205.660156 243.539062 206.464844 L 246.925781 216.828125 L 201.863281 216.828125 Z M 201.546875 221.515625 L 247.230469 221.515625 C 248.65625 221.515625 250 220.832031 250.839844 219.6875 C 251.667969 218.527344 251.914062 217.023438 251.476562 215.667969 L 247.988281 205.011719 C 247.097656 202.265625 244.5625 200.421875 241.683594 200.421875 L 207.09375 200.421875 C 204.214844 200.421875 201.679688 202.265625 200.789062 205.011719 L 197.3125 215.667969 C 196.863281 217.023438 197.105469 218.527344 197.949219 219.6875 C 198.777344 220.832031 200.132812 221.515625 201.546875 221.515625 " fill-opacity="1" fill-rule="nonzero"/><path fill="#000000" d="M 141.582031 236.714844 L 135.753906 236.714844 L 140.128906 230.148438 C 140.835938 229.074219 140.542969 227.621094 139.472656 226.898438 C 138.398438 226.191406 136.949219 226.472656 136.230469 227.558594 L 129.4375 237.765625 C 128.949219 238.484375 128.914062 239.414062 129.316406 240.167969 C 129.730469 240.925781 130.523438 241.402344 131.375 241.402344 L 137.203125 241.402344 L 132.828125 247.96875 C 132.121094 249.042969 132.398438 250.496094 133.484375 251.214844 C 133.875 251.484375 134.328125 251.605469 134.777344 251.605469 C 135.535156 251.605469 136.277344 251.242188 136.726562 250.570312 L 143.519531 240.363281 C 143.996094 239.644531 144.042969 238.714844 143.640625 237.960938 C 143.226562 237.191406 142.433594 236.714844 141.582031 236.714844 " fill-opacity="1" fill-rule="nonzero"/><path fill="#fbe2ae" d="M 137.035156 30.996094 L 137.035156 165.421875 L 37.179688 165.421875 L 37.179688 156.660156 L 123.824219 156.660156 L 123.824219 30.996094 Z M 137.035156 30.996094 " fill-opacity="1" fill-rule="nonzero"/><path fill="#e2ece1" d="M 123.824219 30.996094 L 123.824219 156.660156 L 23.96875 156.660156 L 23.96875 22.234375 L 123.824219 22.234375 Z M 123.824219 30.996094 " fill-opacity="1" fill-rule="nonzero"/><path fill="#f9b132" d="M 48.933594 143.507812 C 55.417969 143.507812 60.679688 138.273438 60.679688 131.820312 C 60.679688 125.363281 55.417969 120.132812 48.933594 120.132812 C 42.4375 120.132812 37.179688 125.363281 37.179688 131.820312 C 37.179688 138.273438 42.4375 143.507812 48.933594 143.507812 Z M 48.933594 114.28125 C 58.660156 114.28125 66.550781 122.132812 66.550781 131.820312 C 66.550781 141.496094 58.660156 149.347656 48.933594 149.347656 C 39.195312 149.347656 31.304688 141.496094 31.304688 131.820312 C 31.304688 122.132812 39.195312 114.28125 48.933594 114.28125 Z M 48.933594 114.28125 " fill-opacity="1" fill-rule="nonzero"/><path fill="#fbc88e" d="M 48.933594 120.132812 C 55.417969 120.132812 60.679688 125.363281 60.679688 131.820312 C 60.679688 138.273438 55.417969 143.507812 48.933594 143.507812 C 42.4375 143.507812 37.179688 138.273438 37.179688 131.820312 C 37.179688 125.363281 42.4375 120.132812 48.933594 120.132812 Z M 48.933594 120.132812 " fill-opacity="1" fill-rule="nonzero"/><path fill="#9c9d9c" d="M 50.398438 52.914062 C 48.4375 52.914062 46.488281 52.914062 44.527344 52.914062 L 38.65625 52.914062 C 39.417969 50.328125 41.816406 48.539062 44.527344 48.539062 C 47.238281 48.539062 49.636719 50.328125 50.398438 52.914062 Z M 50.398438 52.914062 " fill-opacity="1" fill-rule="nonzero"/><path fill="#f9b132" d="M 28.375 42.683594 L 37.179688 42.683594 C 37.179688 45.109375 35.214844 47.070312 32.78125 47.070312 C 30.347656 47.070312 28.375 45.109375 28.375 42.683594 Z M 28.375 42.683594 " fill-opacity="1" fill-rule="nonzero"/><path fill="#f9b132" d="M 60.679688 42.683594 C 60.679688 45.109375 58.707031 47.070312 56.273438 47.070312 C 53.839844 47.070312 51.867188 45.109375 51.867188 42.683594 Z M 60.679688 42.683594 " fill-opacity="1" fill-rule="nonzero"/><path fill="#be3a3c" d="M 47.273438 32.027344 C 46.859375 33.132812 45.785156 33.917969 44.527344 33.917969 C 43.269531 33.917969 42.183594 33.132812 41.769531 32.027344 C 41.65625 31.703125 41.585938 31.355469 41.585938 30.996094 C 41.585938 29.382812 42.902344 28.078125 44.527344 28.078125 C 46.144531 28.078125 47.457031 29.382812 47.457031 30.996094 C 47.457031 31.355469 47.390625 31.703125 47.273438 32.027344 Z M 47.273438 32.027344 " fill-opacity="1" fill-rule="nonzero"/><g clip-path="url(#d773992fc4)"><path fill="#3a322b" d="M 137.035156 29.84375 L 124.972656 29.84375 L 124.972656 22.234375 C 124.972656 21.597656 124.457031 21.078125 123.820312 21.078125 L 23.96875 21.078125 C 23.332031 21.078125 22.8125 21.597656 22.8125 22.234375 L 22.8125 156.65625 C 22.8125 157.292969 23.332031 157.8125 23.96875 157.8125 L 36.03125 157.8125 L 36.03125 165.421875 C 36.03125 166.0625 36.546875 166.578125 37.183594 166.578125 L 137.035156 166.578125 C 137.671875 166.578125 138.1875 166.0625 138.1875 165.421875 L 138.1875 31 C 138.1875 30.363281 137.671875 29.84375 137.035156 29.84375 Z M 25.121094 23.386719 L 122.664062 23.386719 L 122.664062 155.503906 L 25.121094 155.503906 Z M 135.882812 164.269531 L 38.335938 164.269531 L 38.335938 157.8125 L 123.820312 157.8125 C 124.457031 157.8125 124.972656 157.292969 124.972656 156.65625 L 124.972656 32.15625 L 135.882812 32.15625 Z M 135.882812 164.269531 " fill-opacity="1" fill-rule="nonzero"/></g><path fill="#3a322b" d="M 38.335938 42.6875 C 38.335938 42.660156 38.324219 42.636719 38.320312 42.609375 C 38.316406 42.53125 38.296875 42.460938 38.277344 42.386719 C 38.253906 42.308594 38.234375 42.234375 38.199219 42.167969 C 38.183594 42.140625 38.183594 42.117188 38.171875 42.089844 L 34.484375 35.976562 L 41.273438 33.445312 C 41.796875 34.132812 42.523438 34.640625 43.371094 34.890625 L 43.371094 47.472656 C 40.644531 47.917969 38.335938 49.894531 37.542969 52.589844 C 37.441406 52.941406 37.511719 53.316406 37.726562 53.609375 C 37.945312 53.898438 38.289062 54.070312 38.652344 54.070312 L 50.398438 54.070312 C 50.761719 54.070312 51.105469 53.898438 51.320312 53.609375 C 51.539062 53.316406 51.609375 52.941406 51.503906 52.589844 C 50.714844 49.894531 48.402344 47.917969 45.679688 47.472656 L 45.679688 34.890625 C 46.527344 34.640625 47.257812 34.132812 47.777344 33.445312 L 54.566406 35.976562 L 50.878906 42.089844 C 50.867188 42.117188 50.863281 42.140625 50.851562 42.167969 C 50.816406 42.234375 50.796875 42.308594 50.773438 42.386719 C 50.753906 42.460938 50.734375 42.53125 50.730469 42.609375 C 50.726562 42.636719 50.714844 42.660156 50.714844 42.6875 C 50.714844 45.742188 53.207031 48.226562 56.273438 48.226562 C 59.335938 48.226562 61.832031 45.742188 61.832031 42.6875 C 61.832031 42.660156 61.816406 42.636719 61.816406 42.609375 C 61.8125 42.53125 61.789062 42.460938 61.769531 42.386719 C 61.75 42.308594 61.726562 42.234375 61.691406 42.167969 C 61.679688 42.140625 61.679688 42.117188 61.664062 42.089844 L 57.261719 34.785156 C 57.234375 34.742188 57.191406 34.714844 57.160156 34.675781 C 57.117188 34.621094 57.074219 34.570312 57.023438 34.527344 C 56.949219 34.457031 56.867188 34.410156 56.777344 34.363281 C 56.738281 34.347656 56.714844 34.3125 56.675781 34.300781 L 48.585938 31.28125 C 48.59375 31.1875 48.617188 31.097656 48.617188 31 C 48.617188 28.75 46.78125 26.921875 44.527344 26.921875 C 42.269531 26.921875 40.4375 28.75 40.4375 31 C 40.4375 31.097656 40.457031 31.1875 40.464844 31.28125 L 32.375 34.300781 C 32.339844 34.3125 32.3125 34.34375 32.277344 34.363281 C 32.1875 34.410156 32.105469 34.457031 32.027344 34.527344 C 31.976562 34.570312 31.933594 34.621094 31.890625 34.675781 C 31.859375 34.714844 31.816406 34.742188 31.789062 34.785156 L 27.386719 42.09375 C 27.371094 42.117188 27.371094 42.144531 27.359375 42.167969 C 27.324219 42.238281 27.300781 42.308594 27.28125 42.386719 C 27.257812 42.460938 27.238281 42.535156 27.234375 42.613281 C 27.234375 42.636719 27.21875 42.660156 27.21875 42.6875 C 27.21875 45.742188 29.710938 48.226562 32.777344 48.226562 C 35.84375 48.226562 38.335938 45.742188 38.335938 42.6875 Z M 56.273438 37.617188 L 58.632812 41.535156 L 53.910156 41.535156 Z M 56.273438 45.917969 C 54.890625 45.917969 53.703125 45.054688 53.234375 43.84375 L 59.308594 43.84375 C 58.839844 45.054688 57.65625 45.917969 56.273438 45.917969 Z M 48.566406 51.761719 L 40.484375 51.761719 C 41.398438 50.492188 42.898438 49.6875 44.523438 49.6875 C 46.152344 49.6875 47.652344 50.492188 48.566406 51.761719 Z M 44.523438 29.230469 C 45.507812 29.230469 46.308594 30.027344 46.308594 31 C 46.308594 31.976562 45.507812 32.769531 44.523438 32.769531 C 43.542969 32.769531 42.742188 31.976562 42.742188 31 C 42.742188 30.027344 43.542969 29.230469 44.523438 29.230469 Z M 35.140625 41.535156 L 30.417969 41.535156 L 32.777344 37.617188 Z M 29.742188 43.84375 L 35.8125 43.84375 C 35.347656 45.054688 34.160156 45.917969 32.777344 45.917969 C 31.394531 45.917969 30.210938 45.054688 29.742188 43.84375 Z M 29.742188 43.84375 " fill-opacity="1" fill-rule="nonzero"/><path fill="#3a322b" d="M 73.894531 36.539062 L 103.261719 36.539062 C 103.898438 36.539062 104.414062 36.019531 104.414062 35.382812 C 104.414062 34.746094 103.898438 34.230469 103.261719 34.230469 L 73.894531 34.230469 C 73.257812 34.230469 72.738281 34.746094 72.738281 35.382812 C 72.738281 36.019531 73.257812 36.539062 73.894531 36.539062 Z M 73.894531 36.539062 " fill-opacity="1" fill-rule="nonzero"/><path fill="#3a322b" d="M 69.488281 46.765625 L 115.011719 46.765625 C 115.648438 46.765625 116.164062 46.25 116.164062 45.613281 C 116.164062 44.972656 115.648438 44.457031 115.011719 44.457031 L 69.488281 44.457031 C 68.851562 44.457031 68.335938 44.972656 68.335938 45.613281 C 68.335938 46.25 68.851562 46.765625 69.488281 46.765625 Z M 69.488281 46.765625 " fill-opacity="1" fill-rule="nonzero"/><path fill="#3a322b" d="M 53.335938 61.992188 L 35.714844 61.992188 C 35.078125 61.992188 34.5625 62.507812 34.5625 63.144531 C 34.5625 63.78125 35.078125 64.300781 35.714844 64.300781 L 53.335938 64.300781 C 53.972656 64.300781 54.488281 63.78125 54.488281 63.144531 C 54.488281 62.507812 53.972656 61.992188 53.335938 61.992188 Z M 53.335938 61.992188 " fill-opacity="1" fill-rule="nonzero"/><path fill="#3a322b" d="M 41.902344 71.914062 C 41.902344 72.550781 42.417969 73.066406 43.054688 73.066406 L 112.070312 73.066406 C 112.707031 73.066406 113.226562 72.550781 113.226562 71.914062 C 113.226562 71.273438 112.707031 70.757812 112.070312 70.757812 L 43.054688 70.757812 C 42.417969 70.757812 41.902344 71.273438 41.902344 71.914062 Z M 41.902344 71.914062 " fill-opacity="1" fill-rule="nonzero"/><path fill="#3a322b" d="M 35.714844 84.753906 L 112.074219 84.753906 C 112.710938 84.753906 113.226562 84.238281 113.226562 83.601562 C 113.226562 82.964844 112.710938 82.445312 112.074219 82.445312 L 35.714844 82.445312 C 35.078125 82.445312 34.5625 82.964844 34.5625 83.601562 C 34.5625 84.238281 35.078125 84.753906 35.714844 84.753906 Z M 35.714844 84.753906 " fill-opacity="1" fill-rule="nonzero"/><path fill="#3a322b" d="M 35.714844 97.90625 L 112.074219 97.90625 C 112.710938 97.90625 113.226562 97.386719 113.226562 96.75 C 113.226562 96.113281 112.710938 95.597656 112.074219 95.597656 L 35.714844 95.597656 C 35.078125 95.597656 34.5625 96.113281 34.5625 96.75 C 34.5625 97.386719 35.078125 97.90625 35.714844 97.90625 Z M 35.714844 97.90625 " fill-opacity="1" fill-rule="nonzero"/><path fill="#3a322b" d="M 66.550781 109.59375 L 112.074219 109.59375 C 112.710938 109.59375 113.226562 109.078125 113.226562 108.441406 C 113.226562 107.800781 112.710938 107.285156 112.074219 107.285156 L 66.550781 107.285156 C 65.914062 107.285156 65.398438 107.800781 65.398438 108.441406 C 65.398438 109.078125 65.914062 109.59375 66.550781 109.59375 Z M 66.550781 109.59375 " fill-opacity="1" fill-rule="nonzero"/><path fill="#3a322b" d="M 67.707031 131.816406 C 67.707031 121.511719 59.28125 113.128906 48.929688 113.128906 C 38.578125 113.128906 30.15625 121.511719 30.15625 131.816406 C 30.15625 142.121094 38.578125 150.507812 48.929688 150.507812 C 59.28125 150.507812 67.707031 142.121094 67.707031 131.816406 Z M 32.464844 131.816406 C 32.464844 122.785156 39.851562 115.4375 48.929688 115.4375 C 58.011719 115.4375 65.398438 122.785156 65.398438 131.816406 C 65.398438 140.847656 58.011719 148.195312 48.929688 148.195312 C 39.851562 148.195312 32.464844 140.847656 32.464844 131.816406 Z M 32.464844 131.816406 " fill-opacity="1" fill-rule="nonzero"/><path fill="#3a322b" d="M 61.832031 131.816406 C 61.832031 124.734375 56.042969 118.972656 48.929688 118.972656 C 41.816406 118.972656 36.027344 124.734375 36.027344 131.816406 C 36.027344 138.898438 41.816406 144.664062 48.929688 144.664062 C 56.042969 144.664062 61.832031 138.898438 61.832031 131.816406 Z M 38.335938 131.816406 C 38.335938 126.007812 43.089844 121.28125 48.929688 121.28125 C 54.773438 121.28125 59.523438 126.007812 59.523438 131.816406 C 59.523438 137.628906 54.773438 142.351562 48.929688 142.351562 C 43.089844 142.351562 38.335938 137.625 38.335938 131.816406 Z M 38.335938 131.816406 " fill-opacity="1" fill-rule="nonzero"/><path fill="#3a322b" d="M 54.078125 126.546875 C 53.585938 126.140625 52.859375 126.203125 52.453125 126.691406 L 46.097656 134.28125 L 44.015625 131.175781 C 43.660156 130.644531 42.945312 130.5 42.414062 130.859375 C 41.886719 131.214844 41.742188 131.933594 42.097656 132.460938 L 45.035156 136.84375 C 45.238281 137.148438 45.570312 137.335938 45.929688 137.355469 C 45.953125 137.355469 45.972656 137.355469 45.992188 137.355469 C 46.332031 137.355469 46.65625 137.207031 46.878906 136.945312 L 54.21875 128.175781 C 54.628906 127.6875 54.566406 126.957031 54.078125 126.546875 Z M 54.078125 126.546875 " fill-opacity="1" fill-rule="nonzero"/><path fill="#3a322b" d="M 114.59375 131.980469 C 113.253906 132.496094 111.871094 132.960938 110.480469 133.351562 C 108.992188 133.769531 107.476562 134.113281 105.949219 134.378906 C 106.082031 134.042969 106.195312 133.699219 106.285156 133.34375 C 106.582031 132.203125 106.984375 130.640625 106.0625 129.511719 C 105.125 128.363281 103.28125 128.238281 100.582031 129.148438 C 98.574219 129.824219 96.890625 130.957031 95.539062 132.140625 C 95.59375 131.121094 95.417969 130.132812 94.753906 129.441406 C 93.304688 127.925781 90.601562 128.722656 86.421875 130.597656 C 82.058594 132.554688 77.742188 134.953125 73.601562 137.726562 C 73.070312 138.082031 72.929688 138.796875 73.28125 139.328125 C 73.503906 139.660156 73.871094 139.839844 74.242188 139.839844 C 74.464844 139.839844 74.6875 139.777344 74.882812 139.644531 C 78.921875 136.945312 83.121094 134.609375 87.367188 132.703125 C 92.113281 130.574219 92.945312 130.894531 93.089844 131.042969 C 93.109375 131.0625 93.5625 131.570312 92.816406 134.140625 C 92.523438 135.148438 92.011719 135.90625 91.738281 136.3125 C 91.070312 137.304688 91.410156 137.882812 91.8125 138.195312 C 92.058594 138.382812 92.375 138.46875 92.683594 138.425781 C 93.210938 138.351562 93.441406 138.042969 93.890625 137.433594 C 94.859375 136.121094 97.4375 132.644531 101.320312 131.335938 C 103.363281 130.648438 104.183594 130.878906 104.273438 130.972656 C 104.449219 131.21875 104.148438 132.386719 104.050781 132.769531 C 103.828125 133.628906 103.425781 134.433594 102.855469 135.15625 C 102.566406 135.523438 102.527344 136.027344 102.757812 136.4375 C 102.984375 136.84375 103.4375 137.070312 103.902344 137.015625 C 106.332031 136.722656 108.753906 136.238281 111.105469 135.574219 C 112.566406 135.164062 114.019531 134.675781 115.425781 134.132812 C 116.019531 133.902344 116.316406 133.234375 116.085938 132.636719 C 115.855469 132.046875 115.1875 131.75 114.59375 131.980469 Z M 114.59375 131.980469 " fill-opacity="1" fill-rule="nonzero"/><path fill="#3a322b" d="M 110.488281 140.898438 L 81.121094 143.820312 C 80.488281 143.882812 80.023438 144.449219 80.085938 145.082031 C 80.144531 145.679688 80.648438 146.125 81.234375 146.125 C 81.273438 146.125 81.308594 146.121094 81.347656 146.117188 L 110.71875 143.195312 C 111.351562 143.132812 111.816406 142.566406 111.75 141.929688 C 111.6875 141.296875 111.125 140.824219 110.488281 140.898438 Z M 110.488281 140.898438 " fill-opacity="1" fill-rule="nonzero"/></svg>